<?xml version="1.0" encoding="utf-8"?>
<!-- Generator: Adobe Illustrator 18.1.0, SVG Export Plug-In . SVG Version: 6.00 Build 0)  -->
<svg version="1.0" id="Layer_1" xmlns="http://www.w3.org/2000/svg" xmlns:xlink="http://www.w3.org/1999/xlink" x="0px" y="0px"
	 viewBox="0 0 150 150" enable-background="new 0 0 150 150" xml:space="preserve">
<g>
	<path fill-rule="evenodd" clip-rule="evenodd" fill="#263C47" d="M36.5,124.1c-0.4-0.3-0.9-0.2-1.2,0.1c-0.3,0.4-0.2,0.9,0.1,1.2
		c1.7,1.4,3.4,2.6,5.3,3.8c0.1,0.1,0.2,0.1,0.4,0.1c0.3,0,0.6-0.1,0.8-0.4c0.3-0.4,0.2-0.9-0.2-1.2
		C39.9,126.6,38.2,125.4,36.5,124.1z"/>
	<path fill-rule="evenodd" clip-rule="evenodd" fill="#263C47" d="M52.9,133.6c-2-0.8-3.9-1.7-5.8-2.6c-0.4-0.2-0.9,0-1.1,0.4
		c-0.2,0.4-0.1,0.9,0.4,1.1c1.9,1,3.9,1.9,5.9,2.7c0.1,0,0.1,0,0.2,0.1c0.4,0,0.7-0.2,0.9-0.5C53.5,134.3,53.3,133.8,52.9,133.6z"/>
	<path fill-rule="evenodd" clip-rule="evenodd" fill="#263C47" d="M65,137.1c-2.1-0.4-4.2-0.8-6.2-1.4c-0.5-0.1-0.9,0.1-1,0.6
		c-0.1,0.4,0.1,0.9,0.6,1c2.1,0.6,4.2,1.1,6.3,1.4c0,0,0,0,0,0c0.4,0.1,0.9-0.2,0.9-0.7C65.8,137.6,65.5,137.1,65,137.1z"/>
	<path fill-rule="evenodd" clip-rule="evenodd" fill="#263C47" d="M137.6,63.5c0.1,0.4,0.4,0.6,0.7,0.7c0.1,0,0.2,0,0.3,0
		c0.5-0.1,0.8-0.5,0.7-1c-0.4-2.1-0.9-4.3-1.6-6.3c-0.1-0.5-0.6-0.7-1-0.6c-0.4,0.1-0.7,0.6-0.6,1.1
		C136.7,59.3,137.2,61.4,137.6,63.5z"/>
	<path fill-rule="evenodd" clip-rule="evenodd" fill="#263C47" d="M133.9,51.4c0.1,0.3,0.4,0.5,0.7,0.5c0.1,0,0.3,0,0.4-0.1
		c0.4-0.2,0.6-0.7,0.5-1.1c-0.8-2-1.8-4-2.8-5.9c-0.2-0.4-0.7-0.6-1.1-0.3c-0.4,0.2-0.6,0.7-0.3,1.1
		C132.2,47.5,133.1,49.4,133.9,51.4z"/>
	<path fill-rule="evenodd" clip-rule="evenodd" fill="#263C47" d="M130,107.2c-1.1,1.8-2.3,3.6-3.5,5.3c-0.3,0.4-0.2,0.9,0.2,1.2
		c0.1,0.1,0.2,0.1,0.4,0.2c0.3,0,0.6-0.1,0.8-0.3c1.3-1.7,2.5-3.5,3.6-5.4c0.2-0.4,0.1-0.9-0.3-1.2
		C130.7,106.7,130.2,106.8,130,107.2z"/>
	<path fill-rule="evenodd" clip-rule="evenodd" fill="#263C47" d="M120.3,30.7c0.3,0,0.5-0.1,0.7-0.2c0.3-0.3,0.3-0.9,0-1.2
		c-1.5-1.5-3.2-3-4.9-4.3c-0.4-0.3-0.9-0.2-1.2,0.1c-0.3,0.4-0.2,0.9,0.1,1.2c1.7,1.3,3.2,2.7,4.7,4.2
		C120,30.6,120.1,30.7,120.3,30.7z"/>
	<path fill-rule="evenodd" clip-rule="evenodd" fill="#263C47" d="M140.1,69.6c0-0.5-0.4-0.8-0.9-0.8c-0.5,0-0.8,0.4-0.8,0.9
		c0.2,2.1,0.3,4.2,0.2,6.3c0,0.4,0.3,0.8,0.7,0.8c0,0,0.1,0,0.1,0c0.5,0,0.8-0.4,0.8-0.8C140.4,73.9,140.3,71.7,140.1,69.6z"/>
	<path fill-rule="evenodd" clip-rule="evenodd" fill="#263C47" d="M139.2,81.7c-0.5,0-0.9,0.3-0.9,0.7c0,0.3-0.1,0.7-0.1,1
		c-0.3,2.1-0.6,4.2-1.1,6.2c-0.1,0.5,0.2,0.9,0.6,1c0,0,0.1,0,0.1,0c0.4,0.1,0.8-0.2,0.9-0.6c0.5-2.1,0.9-4.2,1.2-6.4
		c0-0.3,0.1-0.7,0.1-1C140,82.1,139.7,81.7,139.2,81.7z"/>
	<path fill-rule="evenodd" clip-rule="evenodd" fill="#263C47" d="M136.4,95.2c-0.4-0.2-0.9,0.1-1.1,0.5c-0.7,2-1.5,4-2.4,5.9
		c-0.2,0.4,0,0.9,0.4,1.1c0.1,0,0.2,0.1,0.2,0.1c0.4,0.1,0.7-0.1,0.9-0.5c0.9-2,1.7-4,2.4-6C137,95.8,136.8,95.4,136.4,95.2z"/>
	<path fill-rule="evenodd" clip-rule="evenodd" fill="#263C47" d="M113.1,125.9c-1.7,1.2-3.5,2.4-5.3,3.5c-0.4,0.2-0.5,0.8-0.3,1.2
		c0.1,0.2,0.4,0.4,0.6,0.4c0.2,0,0.4,0,0.5-0.1c1.9-1.1,3.7-2.3,5.4-3.6c0.4-0.3,0.5-0.8,0.2-1.2C114,125.7,113.5,125.6,113.1,125.9
		z"/>
	<path fill-rule="evenodd" clip-rule="evenodd" fill="#263C47" d="M86.5,13.5c0.5,0.1,0.9-0.2,1-0.7c0.1-0.5-0.2-0.9-0.7-1
		c-0.8-0.1-1.6-0.3-2.5-0.4c-1.3-0.2-2.7-0.3-4-0.4c-0.5,0-0.9,0.3-0.9,0.8c0,0.5,0.3,0.8,0.7,0.9c0,0,0,0,0,0
		c1.3,0.1,2.6,0.2,3.9,0.4C84.9,13.3,85.7,13.4,86.5,13.5z"/>
	<path fill-rule="evenodd" clip-rule="evenodd" fill="#263C47" d="M98.9,16.9c0.4,0,0.7-0.2,0.9-0.5c0.2-0.4,0-0.9-0.5-1.1
		c-2-0.8-4.1-1.5-6.2-2c-0.5-0.1-0.9,0.1-1,0.6c-0.1,0.4,0.1,0.9,0.6,1c2.1,0.6,4.1,1.2,6,2C98.7,16.9,98.8,16.9,98.9,16.9z"/>
	<path fill-rule="evenodd" clip-rule="evenodd" fill="#263C47" d="M110.3,22.7c0.3,0,0.6-0.1,0.8-0.4c0.2-0.4,0.1-0.9-0.3-1.2
		c-1.8-1.2-3.7-2.3-5.6-3.3c-0.4-0.2-0.9,0-1.1,0.4c-0.2,0.4-0.1,0.9,0.4,1.1c1.9,1,3.7,2,5.5,3.2C110,22.7,110.2,22.7,110.3,22.7z"
		/>
	<path fill-rule="evenodd" clip-rule="evenodd" fill="#263C47" d="M32.9,30.4c-0.3,0-0.5-0.1-0.7-0.2c-0.3-0.3-0.3-0.9,0-1.2
		c1.5-1.5,3.2-3,4.9-4.3c0.4-0.3,0.9-0.2,1.2,0.1c0.3,0.4,0.2,0.9-0.1,1.2c-1.7,1.3-3.2,2.7-4.7,4.2C33.2,30.3,33.1,30.4,32.9,30.4z
		"/>
	<path fill-rule="evenodd" clip-rule="evenodd" fill="#263C47" d="M66.8,13.2c-0.5,0.1-0.9-0.2-1-0.7c-0.1-0.5,0.2-0.9,0.7-1
		c0.8-0.1,1.6-0.3,2.4-0.4c1.3-0.2,2.7-0.3,4-0.4c0.5,0,0.9,0.3,0.9,0.8c0,0.5-0.3,0.8-0.7,0.9c0,0,0,0,0,0
		c-1.3,0.1-2.6,0.2-3.9,0.4C68.3,13,67.5,13.1,66.8,13.2z"/>
	<path fill-rule="evenodd" clip-rule="evenodd" fill="#263C47" d="M54.3,16.6c-0.4,0-0.8-0.2-0.9-0.5c-0.2-0.4,0.1-0.9,0.5-1.1
		c2-0.8,4.1-1.5,6.2-2c0.5-0.1,0.9,0.1,1,0.6c0.1,0.4-0.1,0.9-0.6,1c-2.1,0.6-4.1,1.2-6,2C54.5,16.6,54.4,16.6,54.3,16.6z"/>
	<path fill-rule="evenodd" clip-rule="evenodd" fill="#263C47" d="M42.9,22.4c-0.3,0-0.6-0.1-0.8-0.4c-0.2-0.4-0.1-0.9,0.3-1.2
		c1.8-1.2,3.7-2.3,5.6-3.3c0.4-0.2,0.9,0,1.1,0.4c0.2,0.4,0.1,0.9-0.4,1.1c-1.9,1-3.7,2-5.5,3.2C43.2,22.4,43,22.4,42.9,22.4z"/>
	<path fill-rule="evenodd" clip-rule="evenodd" fill="#263C47" d="M102.2,132.3c-1.9,0.9-3.9,1.7-5.9,2.4c-0.4,0.2-0.7,0.6-0.5,1.1
		c0.1,0.3,0.4,0.5,0.7,0.6c0.1,0,0.3,0,0.4,0c2.1-0.7,4.1-1.5,6-2.4c0.4-0.2,0.6-0.7,0.4-1.1C103.1,132.3,102.6,132.1,102.2,132.3z"
		/>
	<g>
		<path fill-rule="evenodd" clip-rule="evenodd" fill="#263C47" d="M23.8,110c-1.2-1.8-2.3-3.6-3.2-5.4c-0.2-0.4-0.7-0.6-1.1-0.4
			c-0.4,0.2-0.6,0.7-0.4,1.2c1,1.9,2.1,3.8,3.3,5.6c0.1,0.2,0.4,0.3,0.6,0.4c0.2,0,0.4,0,0.6-0.1C23.9,110.9,24,110.4,23.8,110
			L23.8,110z"/>
		<path fill-rule="evenodd" clip-rule="evenodd" fill="#263C47" d="M29.1,32.5c-0.3-0.3-0.9-0.3-1.2,0.1c-1.4,1.6-2.8,3.3-4.1,5.1
			c-0.3,0.4-0.2,0.9,0.2,1.2c0.1,0.1,0.3,0.1,0.4,0.1c0.3,0,0.6-0.1,0.8-0.3c1.2-1.7,2.6-3.4,4-4.9C29.5,33.3,29.5,32.8,29.1,32.5z"
			/>
		<path fill-rule="evenodd" clip-rule="evenodd" fill="#263C47" d="M21.4,42.7c-0.4-0.2-0.9-0.1-1.2,0.3c-1.1,1.9-2.1,3.8-3,5.8
			c-0.2,0.4,0,0.9,0.4,1.1c0.1,0,0.2,0.1,0.2,0.1c0.4,0,0.7-0.1,0.9-0.5c0.9-1.9,1.8-3.8,2.9-5.6C22,43.5,21.8,43,21.4,42.7z"/>
		<path fill-rule="evenodd" clip-rule="evenodd" fill="#263C47" d="M12.4,74.9C12.4,74.9,12.4,74.9,12.4,74.9c0.6,0,0.9-0.4,0.9-0.8
			c0-2.1,0.2-4.2,0.5-6.3c0-0.5-0.3-0.9-0.7-0.9c-0.5-0.1-0.9,0.3-0.9,0.7c-0.3,2.2-0.4,4.3-0.5,6.5C11.6,74.5,11.9,74.9,12.4,74.9z
			"/>
		<path fill-rule="evenodd" clip-rule="evenodd" fill="#263C47" d="M13.8,62.2C13.9,62.2,13.9,62.2,13.8,62.2c0.5,0.1,0.9-0.2,1-0.6
			c0.5-2.1,1-4.1,1.7-6.1c0.2-0.4-0.1-0.9-0.5-1.1c-0.4-0.1-0.9,0.1-1.1,0.5c-0.7,2-1.3,4.1-1.7,6.3C13.1,61.6,13.4,62.1,13.8,62.2z
			"/>
		<path fill-rule="evenodd" clip-rule="evenodd" fill="#263C47" d="M15.8,92.9c-0.1-0.4-0.6-0.7-1-0.6c-0.4,0.1-0.7,0.6-0.6,1
			c0.6,2.1,1.3,4.1,2.1,6.1c0.1,0.3,0.4,0.5,0.7,0.5c0.1,0,0.3,0,0.4-0.1c0.4-0.2,0.6-0.7,0.5-1.1C17.1,96.9,16.4,94.9,15.8,92.9z"
			/>
		<path fill-rule="evenodd" clip-rule="evenodd" fill="#263C47" d="M14.3,86.7c-0.4-2.1-0.7-4.2-0.8-6.3c0-0.5-0.4-0.8-0.9-0.8
			c-0.5,0.1-0.8,0.5-0.8,0.9c0.2,2.2,0.5,4.3,0.8,6.4c0.1,0.4,0.4,0.6,0.7,0.7c0.1,0,0.2,0,0.3,0C14.1,87.6,14.4,87.2,14.3,86.7z"/>
		<path fill-rule="evenodd" clip-rule="evenodd" fill="#263C47" d="M27.5,115.1c-0.3-0.4-0.8-0.4-1.2-0.1c-0.4,0.3-0.4,0.8-0.1,1.2
			c1.4,1.7,2.8,3.3,4.4,4.8c0.1,0.1,0.3,0.2,0.5,0.2c0.3,0,0.5-0.1,0.7-0.2c0.3-0.3,0.3-0.9,0-1.2C30.3,118.3,28.9,116.8,27.5,115.1
			z"/>
		<path fill-rule="evenodd" clip-rule="evenodd" fill="#263C47" d="M127.9,40.2c0.1,0.2,0.4,0.3,0.6,0.4c0.2,0,0.4,0,0.6-0.1
			c0.4-0.3,0.5-0.8,0.2-1.2c-1.2-1.8-2.5-3.5-3.9-5.2c-0.3-0.4-0.8-0.4-1.2-0.1c-0.4,0.3-0.4,0.8-0.1,1.2v0
			C125.5,36.8,126.7,38.5,127.9,40.2z"/>
		<path fill-rule="evenodd" clip-rule="evenodd" fill="#263C47" d="M122.5,117.4L122.5,117.4c-1.4,1.6-2.9,3.1-4.5,4.5
			c-0.3,0.3-0.4,0.8-0.1,1.2c0.1,0.2,0.3,0.2,0.5,0.3c0.2,0,0.5,0,0.7-0.2c1.6-1.4,3.1-3,4.6-4.6c0.3-0.3,0.3-0.9-0.1-1.2
			C123.3,117,122.8,117.1,122.5,117.4z"/>
		<g>
			<path fill="#51C8E7" d="M43.6,35.8c0.9,0.5,1.8,1.1,2.6,1.7c0.9,0.6,1.9,1.3,3,2.1c1.4-3.4,3-6.7,4.8-9.9c1.8-3.2,3.7-6.2,5.6-9
				c0.2-0.4,0.5-0.7,0.7-1c0.3-0.3,0.5-0.7,0.8-1v-0.2c-1.3,0.6-2.6,1.3-4,1.9c-1.4,0.6-2.8,1.3-4.2,2.1c-2.5,1.3-5,2.7-7.5,4.3
				c-2.5,1.6-4.7,3.4-6.7,5.3c0.7,0.8,1.5,1.4,2.2,2C41.9,34.5,42.7,35.1,43.6,35.8z"/>
			<path fill="#51C8E7" d="M90.1,100.4c0.9,0.1,1.8,0.3,2.7,0.6c1,0.3,1.9,0.5,2.8,0.8c1.3,0.3,2.4,0.5,3.3,0.8
				c0.9,0.3,1.8,0.6,2.6,0.9c2.3-5.9,3.8-10.9,4.7-14.8c0.9-4,1.3-7.5,1.3-10.5v-0.2H80.6v21c1.3,0.1,2.7,0.3,4.3,0.6
				C86.6,99.7,88.3,100,90.1,100.4z"/>
			<path fill="#51C8E7" d="M29.4,69.6c1.6,0,2.9,1.1,3.4,2.5l9.2-0.1c0-5,0.6-10,1.9-14.8c1.3-4.9,2.6-8.8,4.1-11.8v-0.2
				c-1.5-0.6-2.9-1.3-4.2-2.1c-1.3-0.8-2.6-1.5-3.7-2.3c-1.1-0.6-2.1-1.3-3-2.1c-0.9-0.8-1.7-1.5-2.5-2.3c-4.6,4.4-8,9.6-10.3,15.6
				c-2.3,6-3.9,12.7-4.6,20.1l6.4,0C26.4,70.7,27.7,69.6,29.4,69.6z"/>
			<path fill="#51C8E7" d="M83.7,45.3c1.1-0.1,2.2-0.2,3.3-0.5c2.1-0.4,4.2-0.9,6.2-1.5c2-0.6,3.7-1.5,5.1-2.5
				c-2.2-5.2-4.4-9.7-6.8-13.5c-2.4-3.8-5-7.3-7.9-10.3v-0.2h-3v28.3C81.6,45.3,82.6,45.4,83.7,45.3z"/>
			<path fill="#51C8E7" d="M111.6,42.6c-0.9,0.5-1.8,1-2.7,1.4c-0.9,0.4-1.9,0.9-2.9,1.4c0.8,1.5,1.5,3.1,2.2,4.7
				c0.7,1.6,1.3,3.3,1.8,4.9c1,3,1.8,6,2.5,9c0.6,2.9,0.9,5.7,0.9,8.2l20.8-0.2c0-6.6-1.4-13-4.1-19.4c-2.7-6.4-6.3-11.7-10.7-16.2
				v-0.2c-1,1.5-2.2,2.7-3.5,3.7C114.5,41,113.1,41.8,111.6,42.6z"/>
			<path fill="#51C8E7" d="M43.4,108.5c1.4-0.6,2.9-1.3,4.5-2.1c-1.5-4.4-2.9-8.9-4.1-13.6c-1.3-4.7-1.9-9.6-1.9-14.7v-0.2H19.6
				c0,3.1,0.5,6.8,1.5,10.9c1,4.1,2.5,8.3,4.5,12.6c1,2.1,2.1,4.3,3.3,6.3c1.2,2.1,2.6,4.1,4.1,6.1c1-0.6,2-1.2,3.1-1.8
				c1.1-0.6,2.2-1.1,3.3-1.6C40.7,109.8,42,109.1,43.4,108.5z"/>
			<path fill="#51C8E7" d="M104.4,39.5c0.5-0.3,1.2-0.6,1.9-0.9c0.2-1.8,1.7-3.1,3.5-3.1c0.5,0,1.1,0.1,1.5,0.4
				c0.8-0.5,1.5-1,2.3-1.6c1.1-0.8,2-1.5,2.7-2.3v-0.2c-4.4-3.5-8.6-6.2-12.5-8.1c-3.9-1.9-7.7-3.6-11.3-5.1c2.9,3,5.2,6.3,7,9.9
				C101.3,32.1,102.9,35.8,104.4,39.5z"/>
			<path fill="#51C8E7" d="M107.2,68.3c-0.2-1.4-0.4-2.8-0.7-4.3c-0.5-2.3-1.1-4.5-1.9-6.6c-0.7-2.1-1.5-4.1-2.2-5.9
				c-0.4-0.9-0.8-1.7-1.2-2.6c-0.4-0.8-0.9-1.5-1.2-2c-2,1.4-4.7,2.5-7.9,3.2c-3.3,0.8-6.6,1.2-10,1.3h-1.3v11
				c0.6-0.9,1.7-1.5,2.9-1.5c1.9,0,3.5,1.6,3.5,3.5c0,1.9-1.6,3.5-3.5,3.5c-1.2,0-2.2-0.6-2.9-1.5V72h26.8
				C107.4,70.9,107.3,69.6,107.2,68.3z"/>
			<path fill="#51C8E7" d="M112.4,114.4c-0.8-0.5-1.7-1-2.8-1.6c-1.1-0.6-2.3-1.2-3.7-1.8c-0.8,1.4-2,3.8-3.8,7.4
				c-1.8,3.5-4.5,7.5-8.1,11.9c4.4-0.8,8.5-2.2,12.2-4.4c3.7-2.1,7.1-4.7,10.1-7.6v-0.2c-0.4-0.6-0.9-1.3-1.5-1.9
				C114.2,115.6,113.4,115,112.4,114.4z"/>
			<path fill="#51C8E7" d="M66.5,20.3c-0.8,1.1-1.5,2.3-2.3,3.6c-0.8,1.1-1.5,2.3-2.1,3.4c-0.6,1.1-1.3,2.3-1.9,3.6
				c-1,1.8-1.9,3.5-2.7,5.2c-0.8,1.7-1.6,3.3-2.2,4.8c1.1,0.7,2.4,1.4,4,2c1.5,0.6,3.1,1,4.7,1.4c1.7,0.4,3.4,0.7,5,0.9
				c1.6,0.2,2.9,0.3,4.1,0.3V16.9h-4.3C68,18,67.2,19.1,66.5,20.3z"/>
			<path fill="#51C8E7" d="M99.9,109.4c-2.1-0.7-4.6-1.5-7.4-2.3c-2.8-0.8-6.7-1.5-11.9-2.3v28.1H85c1.5-1.4,3-3.1,4.4-5.2
				c1.5-2.1,2.8-4.2,4.1-6.3c1.3-2.3,2.5-4.5,3.6-6.6C98.2,112.8,99.1,111,99.9,109.4z"/>
			<path fill="#51C8E7" d="M113.3,79c-0.1,3.7-0.6,7.5-1.4,11.4c-0.8,4-2.3,8.8-4.4,14.4c2.9,1.5,5.5,3,7.7,4.5
				c2.3,1.5,4.1,3,5.5,4.4c3.2-3,5.9-7.2,8.2-12.5c2.3-5.3,3.9-10.8,4.8-16.4c0.1-1.1,0.2-2.3,0.3-3.4c0.1-1.1,0.1-2.3,0.1-3.4v-0.2
				h-20.8V79z"/>
			<path fill="#51C8E7" d="M55.3,109.4c1.1,2.6,2.2,5,3.4,7.1c1.1,2.1,2.3,4.1,3.4,5.9c0.5,0.8,1,1.5,1.5,2.4c0.5,0.8,1,1.7,1.5,2.5
				c0.5,0.9,1.1,1.8,1.7,2.8c0.6,1,1.3,2,1.9,3l4.3-0.2v-28.3c-4.4,0.9-8.1,1.7-11,2.5C59,107.9,56.8,108.7,55.3,109.4z"/>
			<path fill="#51C8E7" d="M68.1,51.2c-1.8-0.2-3.5-0.5-5.3-1.1c-1.1-0.3-2.3-0.6-3.4-1c0.1,0.4,0.2,0.8,0.2,1.2
				c0,1.9-1.6,3.5-3.5,3.5c-1.9,0-3.5-1.6-3.5-3.5c0-1.4,0.8-2.5,1.9-3.1c-0.3-0.1-0.5-0.2-0.8-0.4c-1.1,1.9-2.1,4-2.8,6.2
				c-0.8,2.3-1.4,4.5-1.9,6.8c-0.4,2.1-0.7,4.3-0.8,6.3c-0.2,2.1-0.3,4.1-0.3,5.9L73,72V51.2C71.5,51.4,69.9,51.4,68.1,51.2z"/>
			<path fill="#51C8E7" d="M54,121.2c-0.9-1.4-1.7-2.8-2.5-4.3c-0.8-1.5-1.5-3-2.3-4.5v-0.2c-1.4,0.9-3.2,1.8-5.3,2.7
				c-2.1,0.9-4.4,2.1-6.6,3.6c1.2,1,2.5,1.9,3.6,2.7c1.1,0.8,2.3,1.6,3.4,2.4c2.1,1.4,4.4,2.6,6.7,3.7c2.3,1.1,5.2,2.1,8.8,3.1
				c-1.1-1.5-2.2-3-3.1-4.5C55.8,124.2,54.8,122.7,54,121.2z"/>
			<path fill="#51C8E7" d="M48.4,83.7c0.3,2.2,0.7,4.5,1.2,6.9c0.6,2.5,1.3,4.9,2,7.2c0.7,2.3,1.4,4.2,2.2,5.7
				c3.4-1.1,6.3-2.1,8.6-2.7c2.3-0.7,4.6-1.2,6.7-1.4c0.6,0,1.3,0,2-0.1c0.7-0.1,1.4-0.1,2-0.1V77.9H47.9
				C47.9,79.5,48.1,81.4,48.4,83.7z"/>
		</g>
		<path fill="#335369" d="M109.7,28.5c-5.8,0-10.5,4.7-10.5,10.5c0,1.5,0.3,3,0.9,4.3L88.1,55.1c-1.4-0.7-2.9-1.1-4.6-1.1
			c-2.7,0-5.2,1.1-7,2.8l-9.9-5.3c0-0.4,0.1-0.7,0.1-1.1c0-5.8-4.7-10.5-10.5-10.5c-5.8,0-10.5,4.7-10.5,10.5c0,1.2,0.2,2.3,0.6,3.4
			L34.6,64c-1.5-0.9-3.3-1.4-5.2-1.4c-5.8,0-10.5,4.7-10.5,10.5c0,5.8,4.7,10.5,10.5,10.5c5.8,0,10.5-4.7,10.5-10.5
			c0-1.3-0.3-2.5-0.7-3.6l11.5-10.1c1.6,1,3.5,1.6,5.5,1.6c2.9,0,5.4-1.2,7.3-3l9.6,5.1c-0.1,0.5-0.1,1-0.1,1.5
			C73,70.3,77.7,75,83.5,75C89.3,75,94,70.3,94,64.5c0-1.5-0.4-3-1-4.3l12.1-11.8c1.4,0.7,2.9,1.1,4.6,1.1c5.8,0,10.5-4.7,10.5-10.5
			C120.3,33.2,115.5,28.5,109.7,28.5z M29.4,76.6c-1.9,0-3.5-1.6-3.5-3.5c0-1.9,1.6-3.5,3.5-3.5c1.9,0,3.5,1.6,3.5,3.5
			C32.9,75,31.3,76.6,29.4,76.6z M56.1,53.9c-1.9,0-3.5-1.6-3.5-3.5c0-1.9,1.6-3.5,3.5-3.5c1.9,0,3.5,1.6,3.5,3.5
			C59.7,52.3,58.1,53.9,56.1,53.9z M83.5,68c-1.9,0-3.5-1.6-3.5-3.5c0-1.9,1.6-3.5,3.5-3.5c1.9,0,3.5,1.6,3.5,3.5
			C87,66.4,85.4,68,83.5,68z M109.7,42.5c-1.9,0-3.5-1.6-3.5-3.5c0-1.9,1.6-3.5,3.5-3.5c1.9,0,3.5,1.6,3.5,3.5
			C113.2,40.9,111.7,42.5,109.7,42.5z"/>
	</g>
</g>
</svg>
