<?xml version="1.0" encoding="utf-8"?>
<!-- Generator: Adobe Illustrator 18.1.0, SVG Export Plug-In . SVG Version: 6.00 Build 0)  -->
<svg version="1.0" id="Layer_1" xmlns="http://www.w3.org/2000/svg" xmlns:xlink="http://www.w3.org/1999/xlink" x="0px" y="0px"
	 viewBox="0 0 150 150" enable-background="new 0 0 150 150" xml:space="preserve">
<g>
	<g>
		<path fill-rule="evenodd" clip-rule="evenodd" fill="#00ACAE" d="M80.3,70.8c-0.4-0.7-1.5,0.3-2.3,0.4c0.1,0.3,0.1,0.5,0,0.7
			C78.5,72.1,80.7,71.9,80.3,70.8z M69.5,35.2c0,1.4-1.6,2.3-3,2.2c0.1,0.7,0.8,0.2,0.8,1c-1.3,1.6,0.8,4,1.2,5.3
			c1.2,0,2.3,0.2,3.1,1.1c0.6-1,1.7-1.1,2.8-0.8c0.2-1.2,1.6-1.8,2.2-2.8c-0.6-0.5-0.2-1.9-0.3-2.8c-0.8-1.8-2.3-2.2-3.3-3.6
			C71.5,35.8,70.7,35.7,69.5,35.2z M97,80.7c-0.5,0.5-0.4,1.3-0.4,1.9c0.8-0.2,1.2-0.7,1.6-1C98,80.9,97.7,80.5,97,80.7z M94.5,71.7
			c-1.6,0.5-1.5,2.9,0.6,1.8C95.5,72.9,95.1,71.9,94.5,71.7z M112,80.1c0.9-0.4,1-2,0.2-2.7C110.8,78,110.7,79.5,112,80.1z
			 M129.8,73.5c-0.3-0.7-0.9-0.9-1.5-1C128.6,73.1,129.2,73.4,129.8,73.5z M80.8,50.7c0.7,0.7,1.3,0.7,1.3,1.9
			c-0.7,0.2-1.7,0-1.2,1.1c1.6-0.2,3.6-0.7,4.7,1.1c0.6-0.2,1.5-0.8,1.7-0.2c-0.3,1.4,0.3,3.2,0.1,4.6c0.9,0.3,1.9,0.5,2.4,1.6
			c-0.1,1.2-1.8,1.7-1.3,3.2c0.3,0.4,0.7,0.6,1.3,0.4c0.9-0.6,0.4-1.8,1.4-2.3c1,0.9,2.7,0,3.7,0.9c-0.7,3.6,0.8,7.6,2.7,10.1
			c2.2-0.5,1.7,2.7,3.5,2.9c-0.3,1-2.9,3.5-1.3,3.3c-0.2-1.2,1.3-3,2.4-3.3c1.1-0.3,1.6,0.6,2.7,0.6c1.9,0,3.3-1.2,4.8-1.6
			c0.4,0.2,0.4,0.9,0.8,1c0.8-0.4,1.1-1.1,1.9-1.6c1.2,0.4,2.5,0.6,3.6,1.3c0.4-0.6,0.6-1.3,1.4-1.8c2,0.5,4.2-1.4,4.8-2.9
			c0.5,0,1,0.2,1.6,0.1c0.1-1.1,0-2.4,1.2-3.1c0.6-0.2,1.2,0.7,1.6,0.1c-0.5-1.3-1.1-3.1,1.5-3.4c-0.8-1.1-1.8-2.1-0.4-3.2
			c0.5-0.1,1.6,0.4,1.8,0c-1.3-0.2-1.7-2-1-2.9c-0.5-0.5-1.3-0.3-1.5-1.2c-0.5-1,0.4-1.3,0.4-2.1c-0.3-0.7-1-0.4-1.2-1.4
			c-0.1-0.7,0.9-0.8,0.6-1.5c-0.8,0-1.8,0.5-2.1-0.8c0-0.6,1.4-0.7,0.8-1.6l-1.8,0.7c-0.2-0.6-0.7-0.5-0.9-1.2
			c-0.3-0.8,0.6-1,0.2-1.9c-0.4-0.2-0.8,0.5-1.6,0.6c-0.9-0.8-1.9-1.7-2-3.2c-1-0.2-1.5,0.4-2.7,0.6c-1.5-0.5-2.4-2.5-4.2-2.4
			c0.3,0.6-0.2,0.9-0.2,1.4c-1.8,1.2-2.1-0.6-3.3-0.5c-0.4,0.4,0,1.1-0.4,1.5c-0.9,0.4-1.9,0.8-2.4,0.2c-0.2-0.5-0.3-1.1-0.7-1.3
			c-0.8-0.1-0.7,0.3-1.3,0.7c-0.5-0.7-1-1.4-1.4-2.1c-0.8,0.3-1.1-0.5-2,0.1c-0.4,1.3,0.6,2.2,1.4,3.2c-0.3,0.3,0,1-0.7,1.1
			c-1.3-0.8-1.6,0.8-2,1.2c-0.5,0.5-2.1,1.5-2.8,1.7c-3.2,1.1-3.6-2-3-4.6c-1.3-0.6-2.9-1.9-3.4-3.2c-1.9,0.2-3.6-0.9-6.1,0.5
			c-0.7,0.4-0.8,1.3-1.5,1.5c-1.3,0.3-1.7-1.2-2.8-1c0.7,0.6,1.7,0.9,2.2,1.8C81.4,47,79.7,48.2,80.8,50.7z M96.9,52
			c-1.4,1-2.4-1.5-4.2-0.6c-0.1-0.2-0.1-0.4,0.1-0.5C93.9,50.4,95.7,51.3,96.9,52z M79,42.7c-0.5-0.2-1.5-1.1-1.8-0.7
			C77.8,42.2,78.8,43.1,79,42.7z"/>
	</g>
	<g>
		<g>
			<path fill-rule="evenodd" clip-rule="evenodd" fill="#F9A61A" d="M74.5,36.6c1.2,0.5,1.9-1.9,2.8-2.8c-0.4-0.2-0.5-0.6-0.7-0.9
				C75.7,33.1,72.9,35.6,74.5,36.6z M124.4,73.6c-1.3-1.9-0.1-4.7,2-5.9c-0.8-0.8-1.3,0.5-2.1-0.6c0.1-3.4-5-4.5-6.9-5.9
				c-1.6,1.2-3.3,2-5.3,1.6c0.1,1.9-1.3,3.1-3.1,3.9c1,1.7-0.4,3.9-0.2,5.8c1.3,0.1,2.1,2.4,3.1,3.4c2.9,1.5,5.3,0.6,8.1,1.6
				C121.1,74.8,122.3,74.1,124.4,73.6z M41.6,39.6c0.2-1.1-0.7-2-1.3-3c-0.9,1.1-1,2-1.2,3C40.1,40.5,41,40.5,41.6,39.6z M54,49.2
				c1.8-2.3-0.8-5.3-2.6-1.7C51.4,48.6,53,49.7,54,49.2z M21.7,55.2c-0.8,1.5,0.5,3.6,2.5,3.8C25.3,56.8,24,54.6,21.7,55.2z
				 M3.6,81.4c1.1,0.6,2.1,0.3,3-0.1C5.5,80.7,4.6,81,3.6,81.4z M93.6,63.9c-1.6-0.2-2.4,0.3-3.8-1.3c0.8-0.9,2.3-1.7,0.5-2.6
				c-2.1,1.9-4.3,4.5-7.5,3c-0.7,0.8-1.2,2.5-2.2,1.9c-1-2.1-3.5-4-4.6-6.1c-1.5,0.5-3,1.2-4.8,0.2c-1-1.7,0.7-4-1.2-5.5
				c-0.8-0.2-1.6-0.2-2.2,0.7c-0.7,1.6,1.2,2.8,0.3,4.5c-2.1-0.2-3.7,2.7-5.9,2.4c-2.7-5.5-8.5-9.4-13.6-10.8c-2.6,2.8-5-2-7.7-0.5
				c-0.6-1.7,0.6-7.5-1.5-5.7c1.5,1.3,1.1,5.3,0,6.8c-1.1,1.5-2.8,0.9-4.2,1.8c-2.6,1.8-3.3,4.8-5.1,6.8c-0.6,0.2-1.5-0.7-2.1-0.6
				c-0.7,1.4-0.4,2.6-1,4c-2.1,0.6-4.1,1.6-6.3,1.8c0.1,1.2,0.5,2.4-0.1,3.8c-3.2,1.2-4.4,5.9-3.8,8.5c-0.7,0.6-1.6,0.6-2.3,1.5
				c1,1.6,2.4,3.2,1.4,5.2c-0.7,0.9-2.4,0.2-2.3,1.5c1.9,1.2,4.6,3.1,1.3,6c2.2,0.6,4.6,1.1,3.7,3.8c-0.7,0.6-2.7,1-2.5,1.7
				c2-1,4.2,1,4.3,2.9c1.1,0.2,2-0.9,3.3,0.1c1.7,0.8,0.7,2.2,1.6,3.2c1,0.7,1.8-0.4,2.9,0.7c0.9,0.7-0.5,1.9,0.7,2.6
				c1.1-0.8,2.1-2.4,3.6-1c0.6,0.9-1.3,2.3,0.5,2.9l1.8-2.6c0.9,0.7,1.5-0.1,2.4,0.8c1.2,0.8,0.1,2,1.5,2.7c0.8-0.2,0.6-1.4,1.6-2.3
				c2,0.1,4.3,0.4,6,2.3c1.7-0.7,1.8-2,3.2-3.4c2.6-0.8,5.7,1,8.2-0.9c-1-0.6-0.6-1.4-1.1-2c1.3-3.3,3.5-1.3,5.1-2.5
				c0.1-0.9-1.1-1.5-0.9-2.3c0.9-1.4,1.8-3,3.1-2.6c0.8,0.5,1.6,1.2,2.2,1.1c1.3-0.7,0.6-1.1,1.1-2.2c1.3,0.5,2.7,0.9,4.1,1.4
				c0.8-1.2,1.9-0.4,2.7-2c-0.8-2.1-3-2.3-5.1-3c0.1-0.8-1-1.3-0.2-2.2c2.6-0.1,1.5-2.7,1.6-3.6c0.2-1.2,1.5-4,2.1-4.9
				c3.3-4.5,6.9-0.9,8.7,3.3c2.4-0.5,5.8-0.3,7.8,1c2.5-2.1,5.9-2.2,7.9-6.6c0.6-1.2-0.2-2.5,0.7-3.4c1.6-1.7,3.6,0,4.8-1.5
				c-1.6-0.1-3.1,0.5-4.9-0.3C96.3,69.4,97.5,66.2,93.6,63.9z M70.1,77.9c0.9-2.7,4.8-0.4,6.5-3.3c0.4,0.2,0.5,0.4,0.4,0.7
				C75.8,77.2,72.3,77.7,70.1,77.9z M103.8,72.9c0.9-0.3,3.2,0,3.1-0.9C106.1,72.3,103.8,72.1,103.8,72.9z"/>
		</g>
	</g>
	<g>
		<path fill-rule="evenodd" clip-rule="evenodd" fill="#DEDF1E" d="M115.4,80.1c-0.7,2,3.2,2.4,4.1,1.6c0.8-0.7,1-1.6,0.4-2.2
			C118.6,78,116.8,78.8,115.4,80.1z M105.2,96.6c0.9-0.6,0.9-1.5,0.3-1.9C104.3,93.7,103,96.5,105.2,96.6z M117.5,78
			c-0.9-0.1-1.9-0.5-2.8-0.1C115.7,78.2,116.7,78.3,117.5,78z M125.1,54.6c0.7,2.6,3.3-1.1,0.5-0.8L125.1,54.6z M97.7,94.2
			c0.5-0.3,0.9-1,0.6-1.4C97.1,91.7,96,94.1,97.7,94.2z M110,72.2c-0.5-0.9-1.5-1.8-2.2-2.7c0.1,1.1,1.3,1.9,1.9,2.9
			C109.7,72.3,109.9,72.4,110,72.2z M110.8,53.2c0.3,0,0.8-0.3,0.5-0.7C111.2,52.8,110.6,52.9,110.8,53.2z M86.8,84.3
			c0.5-0.6,0.5-1.1-0.2-1.4C86.3,83.4,86.3,83.9,86.8,84.3z M113.4,45.3c-0.8-0.2-1.5,0.2-2.2,0.8C112,46.1,112.8,45.7,113.4,45.3z
			 M86.9,73.1c0.7-0.7,1.4-2.2,1.4-3.2C87.9,71,87,72.3,86.9,73.1z M76.3,65c-0.7,0.1-1.4,0.5-2,1.3C75.1,66.4,75.7,65.4,76.3,65z
			 M98.6,32.4c-0.1-0.4-0.8-0.4-1.1-0.3C97.8,32.4,98.3,32.8,98.6,32.4z M69.3,67c0.8-0.9,0.6-1.9-0.3-2.2
			C67.2,64.1,66.9,67.9,69.3,67z M92.7,33.3c-0.4-0.2,0-0.5-0.5-0.7C91.8,32.9,92.5,33.8,92.7,33.3z M73.2,60.9l-0.3-0.2
			c-0.2,0.2-0.3,0.4-0.1,0.6C72.9,61.1,73.1,61.2,73.2,60.9z M87.2,38.1c0.1,0.1,0.3,0.2,0.4,0.1c-0.8-1.2-0.3-2.7-1.5-3.9
			C86.1,35.6,86.9,36.8,87.2,38.1z M69.6,60.2c-0.4,0.2-0.6,0.7-0.6,1.1l0.5,0.4C70.2,61.4,70.6,60.6,69.6,60.2z M62.5,67
			c-0.4,0-0.7-0.1-1,0.5c0,0.4,0.1,0.7,0.7,0.9C62.8,68.2,63.2,67.5,62.5,67z M70.7,54.2c-0.3-0.3-0.6-0.2-0.8,0.1
			c0.1,0.2,0.2,0.4,0.5,0.5C70.7,54.6,70.4,54.4,70.7,54.2z M76.7,37.9c-0.3-0.3-0.3-0.8-0.5-1.2c-0.5-0.7-1.1-1-1.5-1.6
			c0.6,2.2,2.8,4,4.5,5.9c0.1-0.2,0.3-0.2,0.4-0.4C79.4,39.6,77.5,39,76.7,37.9z M80.8,31.2c-0.7,0.2-1.4,0.3-2.1,0.4
			c-0.9,1-1.5,1.6-1.8,2.8c0.8,0.8,0.4,1.9,0.7,2.8c1.1-0.2,2.4,0.1,3.5,0.1C83.6,35.6,83.8,32.3,80.8,31.2z M71.4,45.6
			c-0.2,0.4-0.5,0.2-0.7,0.5c0,0.4,0,0.8,0.7,1.1C72.4,47.2,72.5,45.6,71.4,45.6z M77.2,37.5c0.3,0.1,0.4,1,0.8,0.5
			C77.5,37.9,77.6,37.2,77.2,37.5z M108.9,47.3c0.7-0.3,1.5-0.5,2.2-1C110.4,46.2,108.9,47.2,108.9,47.3z M102.6,35.8
			c0.3,0.2,0.6,0.1,0.9,0.1c0.3-0.4,0.4-0.7,0-1c-0.3-0.2-0.5,0.4-0.9,0.1C102.6,35.5,103,35.1,102.6,35.8z M80.9,62.3
			c-0.1,0.2-0.6,0.2-0.4-0.1c0.5-0.3,1.6-1.5,1.7-0.3c-0.2,0.4-1.1,0-1,0.7c0.3-0.2,0.6-0.3,0.9-0.2c0.1,0.5-0.3,1-0.6,1.6
			c1.9,1.2-1.4,3.5-0.3,4.6c1.3,1.4,3.6-2.6,5.1,0.4c0.2-0.1,0.4-0.2,0.6-0.1c0.7-0.8,0.5-1.3,1.1-2.1c0.4,0.2,0.2,0.4,0.6,0.4
			c0.1-0.6,0.1-0.9,0.8-0.6c0.3,0.5-0.6,1.1-0.1,1.6c0.7-1.6,1.6-3.2,3.2-1.8c-0.3,2.3,0.8,4.3,0.6,6.4c-0.1,1-0.2,2.2,0.8,2.8
			c2.2-0.1,0.7-2.5,2-4c0.4-1.7-0.6-3.2-0.2-4.9c0.1,0.3,0.7,0.7,0.9,0.3c0.3-0.6-0.9-0.5-0.8-0.7c0.5-0.6,1,0.3,1.5,0.4
			c0.8,0.2,1.5-0.2,2.2,0.8c0,0.4-0.3,0.8-0.3,1.1c0.7,0.3,1.2,1.8,2,0.9c0-0.4-0.6-0.7-0.4-1.1c2.1,0.4,3,1.9,5,2.7
			c2.4-0.7-0.3-2.4-0.1-3.6c0.6,0.4,0.4,0.5,1,1c0.3-0.9-1.8-1.3-1.3-2.2c0.9,0.2,2,0.8,2.7-0.1c-0.7-1-1.9-0.4-2.6-1
			c-0.3,1.6-1.1-1.1-0.2-1.8c0.3-0.2,0.7,0.2,1-0.5c-0.8-0.7-2.6-1.3-1.3-2.4c4-0.8,8.2-0.9,12.7,1.1c1.5-0.6,5.6,2.8,7,1.2
			c1.2-1.3-0.3-1.9-1.1-2.1c-1.9-0.5-5-1.5-6.4-1.8c-3.9-0.7-7.5-0.7-10.2-3.5c-1.1-1.9,1.4-3.1,2.9-3.8c1.2-0.6,1.7-0.8,2.7-0.1
			c1.8-1.6,4.4-1,5.8-3c-3.7-0.8-6.9,1.8-10.4,2.3c-0.7-0.5-1.9-0.8-2.3-1.6c1-0.5,2-1.3,3-1.7c-1.3,0-2.4,1.4-3.7,1.5
			c0-3.4,3.7-6.6,6.2-8c0.4,0.1-0.4,0.5-0.1,0.6c0.8-0.5,0.1-1.1,0.5-2c-0.1-0.1-0.3-0.2-0.3-0.3c-2.3-0.7-3.8,3.4-5.9,4
			c0.2-0.3,0.4-0.5,0.4-0.7c-0.8-0.5-0.9-0.6-1.7-0.7c0.3-1.8-0.7-3.4-0.5-5.1c-0.4,0.1-0.4,1.1-1,1c-0.5-1-0.4-2.7-0.9-3.4
			c0.2-1.2,0.8-2.5,0.6-3.7c-0.8,1.9-1.7,5.1-1.4,6.8c-0.6,0.5-0.8,1.4-1.6,1.2c0.2-0.2,0.5-0.3,0.7-0.5c-0.2-0.3-0.7-0.1-0.6-0.4
			c0.5-0.7-0.3-0.8,0.4-0.9c-0.5-0.7-1.5,0.5-2.1,0.7c0-0.5,0.5-1,0.1-1.4c-0.6,1.1-1.2,3.3-1.8,5.1c-0.3,1-0.9,2.8-2.2,2.2
			c-1-0.5-0.2-1.5-0.8-2.4c-0.6,0.2,0.2,1.2-0.5,1.3c-1.2-1.1-1.5-2.9-1.6-4.6c-0.1-2.3,0-5.1-2.4-6.1c-0.6,0.4-1.1,1-1.4,1.7
			c0.5,1.4,0.5,3.2,1,4.8c0.4,1.3,1.4,2.5,0.6,3.6c-0.2-0.5-0.2-1.1-0.8-1.5c-0.6,1.1,1.4,2.6,1,4c-1.2-0.4-0.5-1.9-1.6-2.6
			c-0.4,1.3,1.2,2.3,0.9,3.6c-1.1,0-2.2,0.4-3.4,0.2c-1.3-1.1-2.7-2.2-4.1-3.3c0.1,1.3,2.8,2,2.7,3.4c-0.9-0.7-1.9-1.4-2.5-0.4
			c-0.3,0.8,0.8,1.3,1.4,2c0,0.8-0.3,1.3-0.7,2c0.4,0.7,1.2,1.5,0.7,2.1c0.6,0.5,1,0.5,1,1.2c-0.8,1-1.8,0.7-2.8,0.7
			c-1.8,1.1-3.7,0.9-5.6,1.3c-1.2-0.4-2.3-0.6-3.3,0c2,1,3.7,0.5,5.2,1.9c0.4-0.1,0.7-0.6,1.1-0.7c1.7,0.9,6.2,0.7,5.2,3.1
			c-0.6,1.5-1.5,0.9-2.3,1.7c0,0.3,0,0.5,0.1,0.7c-0.7,0.6-1.5,0.8-2.2,1.7C79.7,63,80.7,63,80.9,62.3z M97.7,38.1
			c0.5,0,1.1,0.4,1.2,1.1c-1.1,0.3-0.9,1.8-1.6,2.2C96.6,40.5,97.6,39.2,97.7,38.1z M99.6,40.5c0.2,0.3,0.1,0.6-0.2,1
			C99.3,41.2,99.2,40.9,99.6,40.5z M99.8,42.8c-0.3-0.2-0.4,0.4-0.6,0.6c-0.2-0.7,0.5-1.6,0.8-2.5c0.3,0,0.6,0.2,0.9,0.3
			c0,0.8,0.1,2.8-1.3,3C99.4,43.8,99.5,43.3,99.8,42.8z M101.1,43.9c0.7-0.1,1.5-0.1,2.1-0.7c1.9,1.2-0.1,3.2-1.6,2
			c-0.4,0-0.7,0.4-1.1,0.4C100.1,45.2,101.4,44.4,101.1,43.9z M93.1,36.5c0.2-0.8,0.3-1.7,0.1-2.4C92.5,34.5,93.1,36.5,93.1,36.5z
			 M87.5,38.6c-0.2,0.5,0.3,0.8,0.4,1.3C88.1,39.4,87.6,39,87.5,38.6z"/>
	</g>
	<g>
		<path fill-rule="evenodd" clip-rule="evenodd" fill="#DEDF1E" d="M116.2,70.2c-0.5,1.5,2.4,1.8,3.1,1.2c0.6-0.5,0.7-1.2,0.3-1.7
			C118.6,68.7,117.2,69.3,116.2,70.2z M108.4,82.7c0.7-0.5,0.7-1.1,0.3-1.4C107.7,80.6,106.8,82.7,108.4,82.7z M117.7,68.7
			c-0.7,0-1.4-0.4-2.1,0C116.4,68.8,117.1,68.9,117.7,68.7z M123.5,51c0.5,2,2.5-0.8,0.4-0.6L123.5,51z M102.7,80.9
			c0.4-0.2,0.7-0.7,0.5-1C102.3,79,101.5,80.8,102.7,80.9z M112,64.3c-0.4-0.7-1.1-1.3-1.7-2c0.1,0.8,1,1.5,1.4,2.2
			C111.9,64.4,112,64.4,112,64.3z M112.7,49.9c0.2,0,0.6-0.2,0.3-0.5C113,49.6,112.5,49.7,112.7,49.9z M94.5,73.4
			c0.4-0.4,0.4-0.8-0.1-1.1C94.2,72.7,94.1,73.1,94.5,73.4z M114.7,43.9c-0.6-0.2-1.2,0.1-1.7,0.6C113.6,44.6,114.1,44.3,114.7,43.9
			z M94.6,65c0.5-0.6,1-1.7,1.1-2.4C95.4,63.4,94.7,64.3,94.6,65z M86.6,58.9c-0.5,0.1-1.1,0.4-1.5,0.9
			C85.7,59.9,86.1,59.1,86.6,58.9z M103.4,34.2c-0.1-0.3-0.6-0.3-0.9-0.2C102.9,34.2,103.2,34.5,103.4,34.2z M81.3,60.3
			c0.6-0.7,0.4-1.4-0.2-1.6C79.7,58.2,79.5,61,81.3,60.3z M99,34.9c-0.3-0.1,0-0.4-0.4-0.5C98.3,34.6,98.9,35.2,99,34.9z M84.2,55.7
			L84,55.6c-0.1,0.2-0.2,0.3-0.1,0.5C84,55.9,84.1,55.9,84.2,55.7z M94.8,38.5c0.1,0.1,0.2,0.2,0.3,0.1c-0.6-1-0.2-2.1-1.2-2.9
			C94,36.6,94.6,37.5,94.8,38.5z M81.5,55.2C81.2,55.4,81,55.7,81,56l0.4,0.3C82,56.2,82.3,55.5,81.5,55.2z M76.2,60.3
			c-0.3,0-0.5,0-0.8,0.4c0,0.3,0.1,0.5,0.5,0.7C76.4,61.3,76.6,60.7,76.2,60.3z M82.3,50.7c-0.2-0.2-0.4-0.2-0.6,0.1
			c0,0.1,0.1,0.3,0.4,0.4C82.4,51,82.2,50.9,82.3,50.7z M86.9,38.4c-0.2-0.3-0.2-0.7-0.4-0.9c-0.4-0.5-0.9-0.8-1.2-1.2
			c0.4,1.6,2.2,3,3.4,4.5c0.1-0.2,0.2-0.1,0.3-0.3C89,39.7,87.5,39.2,86.9,38.4z M90,33.3c-0.5,0.2-1,0.2-1.6,0.3
			c-0.7,0.8-1.1,1.2-1.3,2.1c0.6,0.6,0.3,1.4,0.5,2.1c0.9-0.2,1.8,0.1,2.7,0.1C92.1,36.6,92.3,34.1,90,33.3z M82.9,44.2
			c-0.2,0.3-0.4,0.1-0.5,0.4c0,0.3,0,0.6,0.5,0.9C83.6,45.4,83.7,44.2,82.9,44.2z M87.2,38c0.2,0.1,0.3,0.8,0.6,0.4
			C87.5,38.4,87.5,37.8,87.2,38z M111.3,45.5c0.5-0.2,1.1-0.4,1.6-0.7C112.4,44.7,111.3,45.4,111.3,45.5z M106.4,36.8
			c0.3,0.2,0.4,0,0.7,0.1c0.3-0.3,0.3-0.5,0-0.7c-0.2-0.1-0.4,0.3-0.7,0.1C106.5,36.5,106.8,36.3,106.4,36.8z M90,56.8
			c0,0.1-0.4,0.1-0.3-0.1c0.3-0.2,1.2-1.1,1.3-0.2c-0.2,0.3-0.8,0-0.7,0.5c0.2-0.2,0.4-0.2,0.7-0.1c0.1,0.4-0.3,0.8-0.5,1.2
			c1.4,0.9-1.1,2.6-0.2,3.5c1,1,2.7-2,3.9,0.3c0.1-0.1,0.3-0.1,0.4-0.1c0.5-0.6,0.4-1,0.8-1.6c0.3,0.1,0.1,0.3,0.4,0.3
			C96,60,96,59.8,96.5,60c0.2,0.4-0.4,0.9-0.1,1.2c0.5-1.2,1.2-2.4,2.4-1.3c-0.2,1.7,0.6,3.2,0.5,4.8c-0.1,0.8-0.1,1.6,0.6,2.2
			c1.7-0.1,0.6-1.9,1.5-3c0.3-1.3-0.4-2.4-0.1-3.7c0.1,0.2,0.5,0.5,0.7,0.2c0.2-0.5-0.7-0.4-0.6-0.5c0.4-0.5,0.7,0.2,1.1,0.3
			c0.6,0.1,1.2-0.2,1.7,0.6c0,0.3-0.2,0.6-0.2,0.9c0.6,0.2,0.9,1.3,1.5,0.7c0-0.3-0.5-0.5-0.3-0.8c1.5,0.3,2.3,1.4,3.7,2.1
			c1.8-0.5-0.2-1.8-0.1-2.7c0.4,0.3,0.3,0.4,0.7,0.7c0.2-0.7-1.4-1-0.9-1.6c0.7,0.1,1.5,0.6,2-0.1c-0.5-0.7-1.5-0.3-2-0.7
			c-0.2,1.2-0.8-0.8-0.2-1.4c0.2-0.2,0.6,0.1,0.8-0.4c-0.6-0.5-2-1-1-1.8c3-0.6,6.2-0.6,9.6,0.8c1.1-0.5,4.2,2.1,5.3,0.9
			c0.9-1-0.2-1.4-0.9-1.6c-1.4-0.4-3.8-1.1-4.9-1.3c-2.9-0.6-5.7-0.5-7.7-2.6c-0.8-1.4,1.1-2.4,2.2-2.9c0.9-0.4,1.3-0.6,2-0.1
			c1.3-1.2,3.4-0.8,4.4-2.2c-2.8-0.6-5.2,1.4-7.9,1.7c-0.5-0.4-1.4-0.6-1.8-1.2c0.8-0.4,1.5-1,2.3-1.3c-1,0-1.8,1-2.8,1.1
			c0-2.5,2.8-5,4.7-6c0.3,0.1-0.3,0.4-0.1,0.5c0.6-0.4,0.1-0.8,0.4-1.5c-0.1-0.1-0.2-0.1-0.2-0.3c-1.8-0.5-2.9,2.6-4.5,3.1
			c0.2-0.2,0.3-0.4,0.3-0.6c-0.6-0.4-0.7-0.5-1.3-0.5c0.2-1.4-0.5-2.5-0.4-3.9c-0.3,0.1-0.3,0.8-0.8,0.7c-0.4-0.8-0.3-2-0.7-2.6
			c0.2-0.9,0.6-1.9,0.5-2.8c-0.6,1.5-1.3,3.9-1,5.2c-0.4,0.4-0.6,1.1-1.2,0.9c0.2-0.1,0.4-0.2,0.5-0.4c-0.1-0.3-0.5-0.1-0.4-0.3
			c0.4-0.5-0.2-0.6,0.3-0.6c-0.4-0.6-1.1,0.3-1.6,0.5c0-0.4,0.4-0.8,0.1-1c-0.4,0.8-0.9,2.5-1.3,3.8c-0.2,0.8-0.6,2.1-1.6,1.6
			c-0.8-0.4-0.2-1.1-0.6-1.8c-0.5,0.1,0.1,0.9-0.3,1c-0.9-0.8-1.1-2.2-1.2-3.4c-0.1-1.8,0-3.9-1.8-4.6c-0.4,0.3-0.8,0.7-1,1.3
			c0.4,1.1,0.4,2.4,0.8,3.7c0.3,1,1.1,1.9,0.5,2.7c-0.2-0.4-0.2-0.8-0.6-1.1c-0.4,0.8,1,1.9,0.7,3c-0.9-0.3-0.4-1.4-1.2-2
			c-0.3,1,0.9,1.7,0.7,2.7c-0.9,0-1.7,0.3-2.6,0.1c-1-0.9-2-1.7-3.1-2.5c0.1,1,2.1,1.5,2,2.5c-0.7-0.5-1.4-1.1-1.9-0.3
			c-0.2,0.6,0.6,1,1.1,1.5c0,0.6-0.2,1-0.6,1.5c0.3,0.5,0.9,1.1,0.5,1.6c0.5,0.4,0.7,0.4,0.7,0.9c-0.6,0.7-1.4,0.5-2.1,0.5
			c-1.3,0.8-2.8,0.7-4.3,1c-0.9-0.3-1.8-0.5-2.5,0c1.5,0.7,2.8,0.4,3.9,1.5c0.3,0,0.6-0.4,0.9-0.5c1.3,0.7,4.7,0.5,3.9,2.3
			c-0.4,1.1-1.1,0.7-1.8,1.3c0,0.2,0,0.4,0.1,0.6c-0.5,0.5-1.1,0.6-1.6,1.3C89.1,57.3,89.9,57.3,90,56.8z M102.7,38.5
			c0.4,0,0.8,0.3,0.9,0.9c-0.8,0.2-0.7,1.4-1.2,1.7C101.9,40.3,102.7,39.3,102.7,38.5z M104.2,40.4c0.1,0.2,0.1,0.5-0.2,0.8
			C104,40.9,103.9,40.7,104.2,40.4z M104.3,42.1c-0.2-0.1-0.3,0.3-0.4,0.5c-0.2-0.6,0.3-1.2,0.6-1.9c0.2,0,0.5,0.2,0.7,0.2
			c0,0.6,0,2.1-0.9,2.2C104.1,42.8,104.1,42.5,104.3,42.1z M105.4,42.9c0.6-0.1,1.1,0,1.6-0.5c1.5,0.9-0.1,2.4-1.2,1.6
			c-0.3,0-0.5,0.3-0.8,0.3C104.6,43.9,105.5,43.3,105.4,42.9z M99.3,37.3c0.1-0.6,0.2-1.3,0-1.8C98.8,35.8,99.3,37.3,99.3,37.3z
			 M95.1,38.9c-0.1,0.4,0.2,0.6,0.3,1C95.5,39.5,95.1,39.2,95.1,38.9z"/>
	</g>
	<path fill="#00ACE4" d="M70.8,69.4c-0.4,0.8-1.3,1.5-1.3,2.4C70,71.1,71.1,69.9,70.8,69.4z"/>
	<path fill="#00ACE4" d="M47.4,115.9c0.3,0.5,0.4,1,1,1.4c0.9-0.6,0.8-1.8-0.1-2.4C47.8,115,47.8,115.4,47.4,115.9z"/>
	<path fill="#00ACE4" d="M62.9,100.1c0.4,0.4,0.8,0.4,1.3,0.4C63.8,100.2,63.4,99.8,62.9,100.1z"/>
	<path fill="#00ACE4" d="M94.5,70.8C93.8,68.6,92.5,72.2,94.5,70.8L94.5,70.8z"/>
	<path fill="#00ACE4" d="M87.1,57.2c-0.5,0.5-0.5,1,0,1.3C87.6,58,87.6,57.6,87.1,57.2z"/>
	<path fill="#00ACE4" d="M45.9,84.4C45.7,84,45.4,84,45,84.2C45.3,84.7,45.6,84.5,45.9,84.4z"/>
	<path fill="#00ACE4" d="M111.8,87.2c-1.8-0.5-3.7,0.2-5.5-0.2c-0.5-0.1-1-0.7-1.6-0.8c-0.9-0.1-1.6,0.5-2.5,0.7
		c-1.1,0.2-2.4-0.2-3.6-0.2c-0.7,0-1.3,0.4-1.9,0.5c-3.6,0.3-7.2-1.1-10.4-0.8c-0.7-0.7-1.9-0.7-2.1-2c0.6-0.2,1.3-0.9,1.9-0.7
		c-1-1.7-0.9-3.2,0.1-4.7c1.7-0.6,4.4-1.1,5.5-2.7c-0.8-1.3-2-0.1-3,0.3c-2.3,1-5.5,1.9-6.7-0.2c-0.5,0-0.5,0.6-1.2,0.9
		c-1-0.2-1.5-1.8-1.6-2.6c-0.2-2.7,4.1-5.3,2-7.3c-4.2,0.6-1.8,6.2-5.7,8c-1.4-0.1-3.4-0.8-2.5-2.7c-0.5-0.7-1.3,0.5-1.8-0.2
		c-0.6-0.3,0.2-0.5-0.2-0.8c-0.2,0.1-0.4,0.4-0.6,0c-1.6-1.5-2.5-5-4.3-3.7c0.2,1.3,2.3,2.8,0.3,3.8c-1.7-0.7-1.6-2.7-2.7-4.1
		c-0.2-0.8-0.4-3.4-1.9-3c-0.2,2.9,3.7,6.3,2.3,9.1c-1.4-0.1-3.7-1.8-4.9-3c-1-1-2.9-5.1-5.2-4.6c-2.3,0.4-1.2,3.8-0.1,4.9
		c1.7,1.7,5.3,0.5,7.2,2.5c0.5,0.5,1.2,1.6,1.5,2.5c0.2,0.8,0.3,3.4-0.1,4.7c-0.5,1.5-0.8,2.5-2.2,3.5c-3.2,0.6-6.1,1.8-9.2,1.1
		c-1.1-0.3-2.3-1.4-3.4-0.2c0.3,1.2,1.6,1.1,2.5,0.9c1.6,0.5,3.3,0.9,5,0.9c0.5,0.4,0.9,0.9,1.4,1.5c-0.1,0.9-0.2,1.7,0.4,2.7
		c-0.1,0.4-0.6,0.3-1,0.8c-0.1,0.4,0.4,1,0,1.4c-1.8,1.9-3.6,2.6-5.6,4.1c-1.8,1.3-3.6,0.9-5.3,1.9c-1.8,1-2.8,1.2-3.9,2.4
		c-0.1,0.9,0.5,1.4,1.3,1.6c2.4-1.2,4.3-0.4,6-2.2c0.4-0.4,0.5-1.1,1-1.6c1.6-1.4,4.1-1.7,6-3c1,0.7,2.2,0.1,3.3-0.2
		c0.2,0.5,0,0.7,0.5,1c0.4,0.1,0.9-0.5,1.3-0.2c0,0.4,0.9,0.9,0.1,1.3c0.2,0.6,0.8-0.2,0.8,0.4c-0.2,1.9-3.6,2.1-3.5,3.9
		c1.9,1,3.1-3.2,4.8-2.3c-0.2,0.7-1.4,1.2-0.7,2c1.1-0.6,1-2,1.9-2.8c0.5-0.5,1.4-0.6,2.1-1c0.3-0.2,1.1-1.6,1.7-0.9
		c-0.2,0.2-0.9,0.1-0.8,0.6c0.4-0.2,0.9-0.7,1.3-0.4c0.3,1.3-0.3,2.5-0.9,3.7c-0.2,5.4-1.5,10.6-2.9,15.9c-0.1,0.1-0.2,0-0.3,0.1
		c-0.1-0.2-0.3-0.2-0.4-0.3c-0.6,0.5,0.4,0.2,0.5,0.4c0.3,2.5-1.2,4.7-2.1,7.2c-0.9,2.6-1,6-1.6,8.8c-0.4,2.1-0.7,4.3-1.1,6.3
		c-0.2,0.9-1.2,2.1,0.3,2.6c1.1-0.6,0.7-1.9,0.7-2.8c0.5-4.8,2.5-9.3,2.7-14.1c0.5-2.6,1.6-5.1,2.2-7.7c0.4-1.5,0.4-3.1,0.8-4.6
		c0.6-2.3,1.5-4.5,1.9-6.6c0.3-2,0.3-6.7,3-6.7c1.2,2.7,4.5,4.3,4.2,7.4c0.6-0.6,0-0.8,1-1.1c0-1.2-1-2.6-0.6-3.7
		c0.8,0,1.9-1.2,2.7-1c0.3,2.7,1.7,6.3,4.2,8.4c-0.2-1.9-3.1-4.5-3.1-6.6c0.4-0.1,0.7,0,1.1-0.4c0.1-1.9-0.5-3.8,0.5-5.5
		c0.4,0,0.4,0.4,0.6,0.8c0.5-0.2-0.1-0.6,0.2-0.8c1.1,1,3,1.2,4.4,2.2c1.4,1,2.5,3,4.3,2.5c0-1.9-2.8-2.1-4.3-3.5
		c-0.3-0.3-0.3-0.8-0.6-1.1c-0.7-0.9-2.4-1.5-2.1-2.8c1.7,0,3.6-0.5,5.3-0.1c0.6,0.2,1.3,0.9,1.9,0.3c-2.1-0.8-4.2-2-6.4-2.5
		c-1.5-3.1,1.5-3.9,3.8-4.1c0.9-0.1,1.6-0.4,2.1-0.4c0.8-0.1,1.7,0.4,2.6,0.4c1.4,0,2.8-0.3,3.7,0c0.5,0.2,0.9,0.7,1.5,0.9
		c0.7,0.2,1.8,0,2.7,0.1c1.1,0.1,2.2,0.6,3.1,0.6c0.7,0,1.3-0.5,2-0.6c2.3-0.2,4.7,0.5,6.5-0.2C112.6,88.4,112.4,87.9,111.8,87.2z"
		/>
	<path fill="#00ACE4" d="M102,93.7c-1.4-0.4-2.9,0.2-4.4-0.2c-0.4-0.1-0.8-0.6-1.3-0.6c-0.8-0.1-1.3,0.4-2,0.6
		c-0.9,0.2-1.9-0.2-2.9-0.2c-0.5,0-1,0.3-1.5,0.4c-2.8,0.2-5.8-0.9-8.3-0.6c-0.5-0.6-1.5-0.6-1.7-1.6c0.5-0.2,1.1-0.7,1.5-0.5
		c-0.8-1.3-0.7-2.6,0.1-3.7c1.4-0.5,3.5-0.9,4.4-2.1c-0.6-1.1-1.7-0.1-2.4,0.2c-1.9,0.8-4.4,1.6-5.4-0.2c-0.4,0-0.4,0.5-0.9,0.7
		c-0.8-0.1-1.2-1.4-1.3-2.1c-0.1-2.2,3.3-4.2,1.6-5.8c-3.4,0.5-1.4,5-4.6,6.4c-1.1-0.1-2.7-0.7-2-2.2c-0.4-0.6-1,0.4-1.4-0.2
		c-0.4-0.3,0.1-0.4-0.2-0.7c-0.2,0.1-0.3,0.3-0.4,0c-1.3-1.2-2-4-3.4-3c0.2,1,1.9,2.2,0.2,3c-1.4-0.6-1.3-2.2-2.2-3.3
		c-0.2-0.7-0.3-2.7-1.5-2.4c-0.1,2.3,2.9,5,1.8,7.3c-1.1-0.1-3-1.4-4-2.4c-0.8-0.8-2.3-4.1-4.1-3.7c-1.8,0.4-1,3-0.1,3.9
		c1.4,1.4,4.3,0.4,5.8,2c0.4,0.4,1,1.3,1.2,2c0.2,0.6,0.2,2.8-0.1,3.7c-0.4,1.2-0.7,2-1.8,2.8c-2.6,0.5-4.9,1.4-7.3,0.9
		C52.5,92,51.5,91,50.7,92c0.2,1,1.3,0.9,2,0.7c1.3,0.4,2.6,0.7,4,0.8c0.4,0.3,0.7,0.7,1.1,1.2c-0.1,0.7-0.2,1.4,0.3,2.1
		c0,0.3-0.5,0.2-0.8,0.6c-0.1,0.4,0.3,0.8,0,1.1c-1.4,1.5-2.9,2.1-4.5,3.3c-1.4,1.1-2.9,0.7-4.2,1.5c-1.4,0.8-2.2,1-3.1,1.9
		c-0.1,0.7,0.4,1.1,1,1.3c1.9-0.9,3.4-0.3,4.8-1.8c0.3-0.3,0.4-0.9,0.8-1.3c1.3-1.1,3.3-1.4,4.8-2.4c0.8,0.5,1.8,0.1,2.7-0.1
		c0.2,0.4,0,0.6,0.4,0.8c0.3,0.1,0.7-0.4,1-0.2c0,0.3,0.7,0.8,0.1,1c0.2,0.5,0.7-0.2,0.6,0.4c-0.2,1.5-2.9,1.7-2.8,3.1
		c1.5,0.8,2.5-2.5,3.8-1.8c-0.2,0.5-1.1,1-0.6,1.6c0.9-0.5,0.8-1.6,1.5-2.3c0.4-0.4,1.1-0.5,1.7-0.8c0.2-0.1,0.9-1.3,1.4-0.7
		c-0.2,0.2-0.7,0.1-0.6,0.5c0.4-0.2,0.8-0.5,1.1-0.3c0.3,1-0.2,2-0.7,2.9c-0.2,4.3-1.2,8.5-2.4,12.7c-0.1,0.1-0.2,0-0.3,0.1
		c-0.1-0.1-0.2-0.2-0.3-0.2c-0.5,0.4,0.3,0.1,0.4,0.3c0.3,2-0.9,3.8-1.6,5.7c-0.7,2.1-0.8,4.8-1.3,7.1c-0.4,1.7-0.5,3.4-0.9,5
		c-0.2,0.7-1,1.6,0.3,2c0.9-0.5,0.5-1.5,0.6-2.2c0.4-3.8,2-7.4,2.1-11.3c0.4-2.1,1.3-4.1,1.8-6.2c0.3-1.2,0.3-2.5,0.6-3.7
		c0.5-1.8,1.2-3.6,1.5-5.3c0.2-1.6,0.2-5.3,2.4-5.4c0.9,2.2,3.6,3.5,3.4,5.9c0.4-0.5,0-0.6,0.8-0.9c0-1-0.8-2-0.5-3
		c0.7,0,1.5-1,2.1-0.8c0.2,2.2,1.3,5.1,3.3,6.7c-0.2-1.5-2.5-3.6-2.4-5.3c0.3-0.1,0.5,0,0.9-0.4c0.1-1.5-0.4-3,0.4-4.4
		c0.3,0,0.3,0.4,0.5,0.6c0.4-0.2-0.1-0.4,0.2-0.6c0.9,0.8,2.4,1,3.5,1.8c1.1,0.8,2,2.4,3.5,2c0-1.5-2.3-1.7-3.4-2.8
		c-0.2-0.2-0.3-0.6-0.5-0.9c-0.6-0.7-1.9-1.2-1.7-2.2c1.3,0,2.9-0.4,4.2,0c0.5,0.1,1.1,0.7,1.5,0.3c-1.7-0.7-3.4-1.6-5.1-2
		c-1.2-2.5,1.2-3.1,3-3.3c0.7-0.1,1.3-0.3,1.7-0.3c0.6-0.1,1.4,0.3,2,0.3c1.2,0,2.2-0.2,2.9,0c0.4,0.1,0.7,0.5,1.2,0.7
		c0.6,0.2,1.4,0,2.2,0.1c0.9,0.1,1.8,0.5,2.5,0.5c0.6,0,1.1-0.4,1.6-0.4c1.9-0.2,3.8,0.4,5.2-0.2C102.7,94.6,102.5,94.1,102,93.7z"
		/>
	<path fill="#00ACE4" d="M106.2,89.2c1.2-0.1,2.2,0.5,3.4,0.4C108.5,89.2,106.9,88.9,106.2,89.2z"/>
	<path fill="#00ACE4" d="M93.6,88.7c-0.8,0-1.4-0.5-2.2-0.3C91.9,89.2,93.2,89,93.6,88.7z"/>
	<path fill="#00ACE4" d="M82.2,89.3c0.9,0.1,1.7,0.6,2.5,0.9c0.5,0.3,0.3,0.5,0.8,0.8c0.8-0.6,2.3,0.9,2.4-0.1
		C86,90.4,83.8,88.8,82.2,89.3z"/>
	<path fill="#00ACE4" d="M70.4,107.7c0.2-0.4,0.4-1.5-0.2-1.6C70.3,106.7,69.9,107.2,70.4,107.7z"/>
	<path fill="#00ACE4" d="M98.1,88.6c0.5-0.1,0.9,0.4,1.5,0.1C99.2,88.4,98.2,88.4,98.1,88.6z"/>
	<g>
		<path fill-rule="evenodd" clip-rule="evenodd" fill="#ED2E7C" d="M99.7,76.5c0.8,0.8,1.8-0.9,0.6-0.9C100,76.1,99.8,76,99.7,76.5z
			 M93.7,71.7c-0.5,0.4-0.8,0.8-1.2,0.1c-0.3,0.7-1,1-1.6,1.2c-0.4,0.9-0.9,1.3-1.5,1.7c0.7,0.9,0.4,2,0.3,3c0.7,0.2,1,0.6,0.8,1.2
			c1,0.9,2,0.4,2.7,1.5c1-1,2.3-0.6,3.4-1.1c-0.2-0.2-0.3-0.5-0.1-0.8c0.3-0.3,0.7,0,0.9-0.4c-0.4-0.5-0.1-1.2,0.5-1.6
			c-0.5-0.9-0.6-1.8-0.5-2.8c-0.9,0.2-1.3-0.9-1.4-1.5C95.1,72,94.6,72.4,93.7,71.7z M83.7,92.9c-1.1,0.8-1,2.2,0,3
			c0.8-0.8,1-2.2,0.3-2.9C83.9,93,83.8,93,83.7,92.9z M72.4,99.9c0.4,0.3,0.3,0.4,0.8,0.5c0.4-0.6,1.2-0.5,1.9-1
			c0.6-0.5,0.9-1.4,1.7-1.5c-0.3-0.5-0.1-1,0.5-1.5c-0.8-0.8,0-1.9-1.1-2.6c0.1-0.2,0.2-0.4,0.2-0.5c-0.3-0.3-0.4,0.2-0.7-0.2
			c-0.2-0.3,0.1-0.7-0.3-1c-0.7,0.5-1.6-0.1-2.4-0.3c-0.7,0.5-1.6,0.2-2.3,0.7c0.3-1.1,0.3-2.2-0.8-3c-2.9,1.6,1,4.5-1.4,6.6
			c0.8,1.3,1,3.2,2.9,3.5c0.2,0.3-0.1,0.7,0.3,1C71.9,100.5,72.1,99.8,72.4,99.9z M89.3,50.4c0.6-0.5,1.2-0.9,1.8-1.4
			C90.4,48.6,89.5,49.9,89.3,50.4z M50.2,87.2c-0.6,0-1.1,1.1-0.5,1.4C50.4,88.8,50.8,87.6,50.2,87.2z M58.3,36.3
			c0.4-0.4,0-0.7,0.3-1.1c0.5-0.4,1.2,0,1.9,0.1c0.4-0.4-0.1-0.6,0.4-1c0.4-0.2,0.8-0.1,1.2-0.1c0.5-1.2,1.3-1,1.9-1.3
			c0-0.3-0.4-0.6-0.2-0.9c1.2-0.8-0.1-1.8,1.2-2.6c-1-1.2-1-2.7,0.1-4.1c-0.6-0.5-1,0.4-1.6,0.2c-1.1-0.5-0.9-1.2-1.6-1.7
			c-0.9-0.1-2-0.4-3.2-1c-0.4,0.6-0.9,0.4-1.4,0.4c-0.3,0.6-0.7,0.9-1.2,0.8c-0.7-0.3-0.6-0.7-1-1.1c-0.1,0.7,0,1.4-0.5,2.1
			c-0.7,0.2-1.4,0.2-2,1.4c0.3,0.3,0.4,0.6,0.3,1c-0.4,0.2-0.9-0.2-1.2,0.3c0,0.5,1.4,0.7,0.9,1.5c-0.3,0.5-0.8,0-1.1,0.6
			c0.4,0.5,0.6,0.6,1.2,0.8c-0.1,1-1.2,0.5-1.3,1.1c0.5,0.3,0.8-0.3,1.3,0c0.3,1,2.1,1.2,2.1,2.3c-0.1,0.7-1.8,1.9-1.7,2.9
			C54.1,34.2,57.3,33.8,58.3,36.3z M40.8,61.7c-1.2,0-1.3,1.3-2.3,2.4C39.4,64.2,40.4,62.7,40.8,61.7z M52.2,36.2
			c-0.7,0.7-1.4,1.4-2,2.2C50.9,38.4,51.9,37,52.2,36.2z M60.9,17.3c1.1,0.1,1.2-1.3,0.7-1.9c-0.7-0.6-1.5,0.1-2.2-0.3
			c-1.5,1.1,0.4,2.2,0.6,3.4c0.2,0.1,0.4,0,0.6,0.1C61,18,60.9,17.7,60.9,17.3z M32.3,54.6c-0.7-0.4-1.5,0.7-1.7,1
			C31.2,55.8,31.7,55.1,32.3,54.6z M31.4,48.4c1.1,0.4,2.2,0.7,3.2,0.5C33.5,48.5,32.4,48.4,31.4,48.4z M67.4,89.6l0.4,0.3
			c0.6-0.5,0.5-0.4,0.6-1.3c0.6-0.2,0.6-0.7,1.1-0.9c-0.4-0.5-0.5-1.1,0.3-1.8c-0.6-1-0.6-2.5-1.7-3.3c-0.6-0.4-1.7-0.2-1.9-1
			c3.2-0.5,4.2-6.3,6.5-8.1c0.6,0.9,1.1,1.8,1.7,2.7c-0.2,0.5,0,1.3,0.7,1.3c0.5-1.8-1.5-3.2-0.9-5c1.1-0.1,1.7-0.7,2.9-1
			c1.7,1,3,0.8,4.4,0.9c0.6,0,1.1,0.5,1.5-0.1c-0.1-0.2-0.1-0.4-0.1-0.6c-0.6-0.5-1-0.2-1.6-0.8c0.2-1.6,2.3-3,3.8-3.8
			c-0.6-0.6-1-0.3-1.6-0.8c0.2-1.6,1.6-1.7,1.9-3.2c0.8-0.3,1.7-0.1,2.5-0.8c1.1-0.3,2.5,0.4,3.6-0.2c-0.7-0.5-1.1-0.2-1.8-0.2
			c-0.8,0-2-0.3-2.8-0.2c-1,0.1-1.6,0.6-2.2,0.1c-0.8-0.6-0.2-1.6-0.1-2.7c-2.6-2.8,0.8-5.6,3.4-7.6c-1.7,0.9-3.4,2.6-5.2,3.2
			c-0.1-1.3-0.2-2.5-0.8-3.7c0.5-0.6,1.2-0.4,1.6-1.4c-0.5-0.5-0.8,0.3-1.3,0.3c0.8-2,2.8-1.7,3.8-3.8c0.2,0.1,0.3-0.1,0.5,0
			c0.5,0.2,0.3,0.5,0.6,0.8c0.7-0.2,1.5-0.3,2.1,0.3c0.9-0.5,1.8-0.9,3-0.3c0.5-0.5-0.4-0.7,0.2-1.2c1.1,0.3,0.9-0.6,1.8-1.2
			c-0.1-0.2-0.4-0.4-0.3-0.7c1.1-1,0.2-1.6,0.4-2.5c0.8-0.6,1.7-0.5,2-1.6c-0.6-0.4-0.9,0.9-1.5,0.8c-0.7-1.1-1.7-2.2-2.2-3.3
			c-0.6,0.3-1.4,0.1-2-0.7c-1.1,0.3-2.3,0.5-3.3,0.2c-0.4,0.4-0.1,0.6-0.3,0.9c-0.5,0.2-1,0.3-1.5,0.1c-0.2,1.5-1.1,2.6-1.6,4
			c0,0.3,0.6,0.5,0.6,0.8c-0.2,0.4-0.3,0.7-0.4,1c-0.1,0.4,0.6,0.3,0.5,0.5c-1.3,1.4-2.7,3.9-4.6,4.4c-1.4-0.5-2.8-1-3.5-2.4
			c0-0.3,0.6-0.7,0.9-1.2c0.3-0.2,0.7,0.2,0.9-0.2c1-2.2,1-4.2-0.2-5.9c-0.7-0.3-1.3-0.6-2-1.1c-1.5-0.2-2.7,0.7-4.1,0.8
			c0.3,0.5-0.4,1.3-0.9,1.5c-0.2,1.7-0.4,3.4,0.7,4.8c-1.2,1.7-2.8,0.6-4.2,1.3c-1.4-1.4-2.5-2.9-3.8-4.4c0.1,1.3,1.2,2.5,2.6,3.7
			c-0.2,0.6-0.1,1.1-0.3,1.6c-0.5,0.1-0.9,0.5-1.4,0.2c-0.4-0.3-0.1-0.7-0.5-1c-0.8,1.4-2.1,3.6-4,2c-0.6,0.5,0.2,0.7-0.2,1.2
			c-1.5,0.5-4.8-1.4-5.4-2.7c1.3-0.1,2.5,0.9,3.3-0.5c0.8-1.4-0.9-2.9-2.6-2.8c-1.2,0.9-2.6,1.4-1.7,2.9c-1.9,0.5-3.8-2-3.7-3.5
			c0.2-0.5,0.4-1.1,0-1.5c-0.1,0.1-0.2,0.1-0.3,0c-0.5,0.2-0.9,1.2-1.4,1.7c-0.8-0.1-1.5,0.1-2.3-0.4c-0.1-0.5,0.2-1.7-0.5-1.8
			c0.4,0.7-0.3,2-1.2,2.3c-0.4-0.2-0.8-0.4-1.3-0.5c-0.9,0.6-2,0.8-2.5,1.9c-0.5,0.1-1.2-0.6-1.7-0.3c-0.5,0.6,0.4,0.9-0.1,1.6
			c-0.5,0-1.2-1-1.6-0.3c-0.2,0.5,0.8,0.9,0.8,1.4c-0.4,1.1-1.1,1.5-1.6,2.3c-0.2,0-0.5-0.2-0.8,0c0.1,0.2,0.7,0,0.6,0.4
			c-0.4,0.4-0.8,0.2-1.1,0.9c0.5,0.3,1,0.3,1.2,0.8c-1.4,2.2,0.5,3.8,0.9,5.7c-0.7,1.5-2.1,1.9-2.6,2.8c0.5-0.2,0.9-0.9,1.5-0.8
			c0.1,0.4-0.2,1.1,0.5,1.2c0.5-0.7,0.2-1.2,0.3-1.8c0.5-0.2,0.9-1,1.4-0.9c0.9,0.4,0.8,1.1,1,1.7c0.6,0.3,1.1,0.1,1.7,0.5
			c0.4,0.4-0.3,1,0.2,1.3c0.5,0.3,0.7-0.6,1.1-0.7c0.9,0.4,0.8,0.7,1.6,1.2c0.7-0.6,1.5-1.1,2.5-0.3c0.7-0.8,1.5-1.4,2.5-0.6
			c0.4,0,0.7-0.6,1.2-0.5c-0.1,0.2,0.2,0.7,0.5,0.5c-0.5-0.7,0.9-1.7,1.4-1.8c0.2-0.5-0.3-0.8,0.2-1.4c0.2,0.1,0.4,0,0.7,0.2
			c0,1.1-1.3,2.5-1.4,3.6c1.2,0.8,2.7,1,3.4,2.5c-0.1,0.1,0,0.2,0,0.3c-0.3,0.1-0.6,0.3-0.8,0.7c-2,0-3.3,1.7-5.1,2.4
			c1.8,0.2,3.8-2.9,6.3-0.6c0.7-0.6-0.6-1.3,0.1-1.6c0.7,0.9,0.2,2,0.6,2.9c-1.1,3.2-4.8,3.3-5.7,6.5c2.5,2.8,5.8-3.1,8.1-1.8
			c1.4,0.8,0.2,1.8-0.1,2.9c1.1,0.3,1.3-1.5,2.2-1.5c1,0.6,0.3,1.6,0.3,2.3c1.2,0.6,0.7,1.5,1.1,2.4c0.8,0.1,1.3-1,2.1-0.7
			c0.4,1.2,1.7,3.3-0.3,4.1c0.1,1-0.8,1.1-1.5,1.3c0.2,0.7-0.4,1-0.9,1.5c0.4,1.4-0.1,3.7,2,4.2c0.4,0.3,0.2,0.8,0.7,1.1
			C64.9,89.8,66.3,90.6,67.4,89.6z M54.5,54.7c-0.1,0.4-0.7,1.1-1.3,0.6C53.3,54.8,54,54.5,54.5,54.7z M54.6,65.7
			c-0.5,0.4-1.2-0.1-1.9-0.1C53.3,65.1,54.5,64.7,54.6,65.7z M59.1,47c0.1-1.2,0.1-2.9-0.3-3.7C58.8,44.6,58.6,45.9,59.1,47z
			 M52.9,37c0,0.4-1.4,1.5-1,2.1C52.4,38.5,53.4,37.2,52.9,37z"/>
	</g>
	<g>
		<path fill-rule="evenodd" clip-rule="evenodd" fill="#ED2E7C" d="M104,84.3c0.7,0.8,1.7-0.8,0.6-0.9
			C104.3,83.9,104.1,83.9,104,84.3z M98.2,79.7c-0.4,0.4-0.8,0.8-1.2,0.1c-0.3,0.6-1,0.9-1.6,1.1c-0.4,0.9-0.8,1.3-1.5,1.7
			c0.7,0.9,0.3,1.9,0.3,2.9c0.6,0.2,1,0.6,0.8,1.2c0.9,0.8,1.9,0.4,2.6,1.5c1-0.9,2.2-0.6,3.3-1.1c-0.2-0.2-0.3-0.5,0-0.8
			c0.3-0.3,0.6,0,0.9-0.4c-0.4-0.5-0.1-1.1,0.5-1.6c-0.5-0.8-0.6-1.7-0.5-2.7c-0.9,0.2-1.2-0.9-1.4-1.4C99.5,80,99,80.4,98.2,79.7z
			 M88.5,100c-1,0.8-0.9,2.2,0,2.9c0.8-0.7,1-2.1,0.3-2.8C88.7,100.2,88.6,100.2,88.5,100z M77.6,106.9c0.4,0.3,0.3,0.4,0.7,0.5
			c0.4-0.6,1.2-0.5,1.8-1c0.6-0.5,0.8-1.4,1.6-1.4c-0.3-0.5-0.1-1,0.5-1.4c-0.8-0.7,0-1.8-1.1-2.5c0.1-0.2,0.2-0.4,0.2-0.5
			c-0.3-0.3-0.4,0.1-0.7-0.1c-0.2-0.3,0.1-0.7-0.3-1c-0.7,0.5-1.5-0.1-2.3-0.3c-0.7,0.5-1.5,0.2-2.2,0.7c0.3-1.1,0.3-2.1-0.8-2.9
			c-2.8,1.5,1,4.3-1.3,6.4c0.8,1.3,0.9,3.1,2.8,3.4c0.2,0.3-0.1,0.7,0.3,1C77.1,107.4,77.3,106.8,77.6,106.9z M93.9,59.1
			c0.6-0.5,1.2-0.8,1.7-1.4C95,57.4,94.1,58.6,93.9,59.1z M56.2,94.6c-0.6,0-1,1-0.5,1.4C56.4,96.1,56.8,95,56.2,94.6z M64.1,45.5
			c0.4-0.4,0-0.7,0.3-1.1c0.5-0.4,1.2,0,1.8,0.1c0.4-0.4-0.1-0.6,0.4-1c0.4-0.2,0.8-0.1,1.2-0.1c0.5-1.1,1.2-1,1.8-1.3
			c0-0.3-0.3-0.6-0.2-0.9c1.1-0.7-0.1-1.8,1.2-2.5c-1-1.2-1-2.6,0.1-3.9c-0.6-0.5-1,0.4-1.6,0.2c-1.1-0.4-0.9-1.1-1.5-1.7
			c-0.9-0.1-1.9-0.4-3.1-1c-0.4,0.6-0.9,0.4-1.3,0.3c-0.3,0.6-0.7,0.9-1.2,0.8c-0.7-0.3-0.6-0.7-1-1c-0.1,0.7,0,1.3-0.5,2
			c-0.7,0.2-1.4,0.2-1.9,1.4c0.3,0.3,0.3,0.6,0.3,1c-0.4,0.2-0.8-0.1-1.2,0.3c0,0.5,1.3,0.7,0.9,1.4c-0.3,0.5-0.8,0-1,0.6
			c0.4,0.5,0.6,0.6,1.2,0.8c-0.1,1-1.1,0.5-1.2,1.1c0.5,0.3,0.8-0.3,1.2,0c0.3,0.9,2,1.1,2.1,2.2c-0.1,0.6-1.7,1.8-1.7,2.8
			C60,43.5,63.1,43.1,64.1,45.5z M47.2,70c-1.2,0-1.2,1.2-2.2,2.3C45.9,72.4,46.8,70.9,47.2,70z M58.2,45.4c-0.7,0.7-1.3,1.4-2,2.1
			C56.9,47.6,57.9,46.2,58.2,45.4z M66.5,27.2c1.1,0.1,1.2-1.3,0.6-1.8c-0.7-0.6-1.5,0.1-2.1-0.3c-1.5,1.1,0.3,2.2,0.5,3.2
			c0.2,0.1,0.4,0,0.6,0.1C66.6,27.9,66.5,27.6,66.5,27.2z M38.9,63.2c-0.6-0.4-1.4,0.6-1.6,1C37.9,64.3,38.4,63.7,38.9,63.2z
			 M38.1,57.2c1.1,0.4,2.1,0.6,3.1,0.5C40.1,57.3,39.1,57.2,38.1,57.2z M72.8,96.9l0.4,0.3c0.6-0.5,0.5-0.4,0.5-1.2
			c0.6-0.2,0.5-0.6,1.1-0.8c-0.3-0.5-0.4-1,0.3-1.7c-0.6-1-0.5-2.4-1.7-3.2c-0.6-0.4-1.6-0.2-1.9-0.9c3.1-0.5,4.1-6.1,6.2-7.8
			c0.6,0.8,1,1.7,1.7,2.6c-0.2,0.5,0,1.3,0.7,1.3c0.5-1.8-1.4-3.1-0.8-4.9c1.1-0.1,1.7-0.7,2.8-0.9c1.6,1,2.9,0.8,4.3,0.9
			c0.6,0,1.1,0.5,1.5-0.1c-0.1-0.2-0.1-0.4-0.1-0.5c-0.6-0.5-1-0.2-1.5-0.7c0.2-1.5,2.2-2.9,3.7-3.7c-0.6-0.6-1-0.3-1.5-0.7
			c0.2-1.5,1.5-1.7,1.8-3c0.8-0.3,1.7-0.1,2.4-0.7c1.1-0.3,2.4,0.4,3.4-0.2c-0.7-0.5-1-0.2-1.7-0.2c-0.8,0-2-0.3-2.7-0.2
			c-0.9,0.1-1.6,0.6-2.1,0.1c-0.8-0.6-0.1-1.6-0.1-2.6c-2.5-2.7,0.8-5.5,3.2-7.3c-1.7,0.9-3.2,2.5-5,3.1c-0.1-1.2-0.2-2.4-0.8-3.6
			c0.5-0.6,1.1-0.4,1.6-1.3c-0.5-0.5-0.8,0.3-1.3,0.2c0.8-1.9,2.7-1.6,3.7-3.7c0.2,0.1,0.3-0.1,0.5,0c0.4,0.2,0.2,0.5,0.6,0.7
			c0.7-0.2,1.4-0.3,2,0.3c0.9-0.5,1.8-0.9,2.9-0.3c0.5-0.5-0.4-0.7,0.2-1.1c1.1,0.3,0.9-0.6,1.8-1.2c-0.1-0.2-0.3-0.4-0.3-0.7
			c1.1-1,0.2-1.6,0.4-2.4c0.8-0.5,1.6-0.5,1.9-1.6c-0.6-0.4-0.9,0.9-1.5,0.7c-0.7-1.1-1.6-2.1-2.1-3.2c-0.6,0.2-1.4,0.1-1.9-0.7
			C94.2,46,93,46.2,92.2,46c-0.3,0.3-0.1,0.6-0.3,0.9c-0.5,0.2-0.9,0.3-1.5,0.1c-0.2,1.4-1,2.6-1.6,3.8c0,0.3,0.6,0.5,0.6,0.7
			c-0.2,0.4-0.3,0.7-0.4,1c-0.1,0.4,0.6,0.3,0.5,0.5c-1.2,1.3-2.6,3.8-4.4,4.3c-1.4-0.4-2.7-1-3.4-2.3c0-0.3,0.6-0.7,0.8-1.2
			c0.3-0.2,0.7,0.2,0.9-0.2c1-2.1,1-4-0.2-5.7c-0.7-0.3-1.3-0.6-2-1c-1.4-0.2-2.6,0.6-4,0.8c0.3,0.5-0.4,1.3-0.9,1.5
			c-0.2,1.6-0.4,3.2,0.7,4.6c-1.1,1.6-2.7,0.6-4,1.2c-1.4-1.4-2.4-2.8-3.6-4.2c0.1,1.2,1.2,2.4,2.5,3.6c-0.2,0.5-0.1,1-0.3,1.6
			c-0.4,0.1-0.8,0.5-1.4,0.2c-0.4-0.3-0.1-0.7-0.4-0.9c-0.7,1.3-2,3.4-3.9,1.9c-0.6,0.5,0.2,0.7-0.2,1.1c-1.4,0.5-4.6-1.3-5.2-2.6
			c1.2-0.1,2.4,0.8,3.2-0.5c0.7-1.3-0.9-2.8-2.5-2.7c-1.1,0.8-2.5,1.4-1.7,2.8c-1.8,0.5-3.7-1.9-3.6-3.4c0.2-0.5,0.4-1,0-1.4
			c-0.1,0.1-0.2,0.1-0.3,0c-0.5,0.2-0.9,1.1-1.3,1.6c-0.7-0.1-1.4,0.1-2.2-0.4c-0.1-0.5,0.2-1.6-0.5-1.8c0.3,0.7-0.3,1.9-1.1,2.3
			c-0.4-0.2-0.8-0.3-1.2-0.5c-0.8,0.6-1.9,0.7-2.4,1.8c-0.5,0.1-1.2-0.6-1.6-0.3c-0.5,0.6,0.4,0.9-0.1,1.5c-0.5,0-1.2-1-1.5-0.3
			c-0.2,0.5,0.7,0.9,0.8,1.3c-0.4,1.1-1,1.4-1.6,2.3c-0.2,0-0.5-0.2-0.8,0c0.1,0.2,0.7,0,0.5,0.4c-0.3,0.4-0.8,0.2-1.1,0.9
			c0.5,0.3,0.9,0.3,1.2,0.8c-1.3,2.1,0.5,3.7,0.9,5.5c-0.7,1.5-2.1,1.8-2.5,2.7c0.5-0.2,0.9-0.8,1.5-0.7c0.1,0.4-0.2,1.1,0.5,1.1
			c0.5-0.7,0.2-1.2,0.3-1.7c0.5-0.2,0.8-0.9,1.4-0.8c0.9,0.4,0.7,1,0.9,1.6c0.6,0.3,1.1,0.1,1.7,0.5c0.4,0.4-0.3,0.9,0.2,1.3
			c0.4,0.3,0.7-0.5,1.1-0.7c0.9,0.4,0.8,0.6,1.5,1.2c0.7-0.6,1.4-1,2.4-0.3c0.7-0.8,1.5-1.3,2.4-0.5c0.4,0,0.7-0.6,1.1-0.5
			c-0.1,0.1,0.2,0.7,0.5,0.5c-0.5-0.7,0.9-1.6,1.4-1.7c0.2-0.5-0.3-0.8,0.1-1.3c0.2,0.1,0.4-0.1,0.7,0.1c0,1.1-1.3,2.4-1.4,3.5
			c1.1,0.8,2.6,1,3.3,2.4c-0.1,0.1,0,0.2-0.1,0.3c-0.3,0.1-0.6,0.3-0.8,0.7c-2,0-3.2,1.7-4.9,2.3c1.7,0.2,3.7-2.8,6.1-0.6
			c0.7-0.6-0.6-1.2,0.1-1.5c0.7,0.8,0.2,1.9,0.6,2.8c-1.1,3.1-4.6,3.2-5.5,6.3c2.4,2.7,5.6-3,7.8-1.8c1.4,0.8,0.2,1.7-0.1,2.8
			c1,0.3,1.3-1.4,2.1-1.4c1,0.6,0.3,1.5,0.3,2.3c1.1,0.5,0.6,1.4,1,2.3c0.7,0.1,1.3-1,2-0.7c0.4,1.2,1.6,3.2-0.3,4
			c0.1,1-0.7,1-1.5,1.2c0.2,0.7-0.3,1-0.9,1.5c0.4,1.3-0.1,3.5,1.9,4c0.4,0.3,0.2,0.8,0.7,1.1C70.4,97.1,71.8,97.9,72.8,96.9z
			 M60.4,63.3c-0.1,0.4-0.7,1-1.2,0.6C59.2,63.3,59.9,63.1,60.4,63.3z M60.5,73.9c-0.5,0.4-1.2-0.1-1.8-0.1
			C59.2,73.3,60.4,72.9,60.5,73.9z M64.8,55.9c0.1-1.2,0.1-2.8-0.3-3.6C64.5,53.5,64.3,54.7,64.8,55.9z M58.9,46.2
			c0,0.4-1.3,1.4-1,2C58.4,47.6,59.3,46.4,58.9,46.2z"/>
	</g>
	<g>
		<g>
			<path fill-rule="evenodd" clip-rule="evenodd" fill="#ED2E7C" d="M65.4,128.6c-1.1,1,1,2.3,1.1,0.8C65.9,129,66,128.7,65.4,128.6
				z M71.9,121.2c-0.5-0.6-1-1.1-0.1-1.6c-0.8-0.4-1.1-1.3-1.4-2.1c-1.2-0.5-1.6-1.1-2.1-2c-1.2,0.9-2.5,0.4-3.9,0.3
				c-0.3,0.8-0.8,1.3-1.6,1c-1.2,1.2-0.6,2.5-2.1,3.4c1.1,1.3,0.6,2.9,1.2,4.3c0.3-0.2,0.7-0.3,1.1,0c0.3,0.4-0.1,0.8,0.4,1.2
				c0.7-0.5,1.5-0.2,2,0.7c1.1-0.6,2.3-0.8,3.6-0.5c-0.2-1.2,1.3-1.6,2-1.8C71.5,122.9,71,122.2,71.9,121.2z M45.8,108
				c-1-1.3-2.8-1.3-3.8,0c0.9,1,2.7,1.3,3.7,0.4C45.7,108.2,45.7,108.1,45.8,108z M37.7,93.5c-0.4,0.5-0.6,0.4-0.7,1
				c0.8,0.6,0.6,1.6,1.2,2.4c0.6,0.8,1.8,1.1,1.8,2.2c0.6-0.3,1.3-0.1,1.8,0.7c1.1-1,2.4,0.1,3.4-1.4c0.2,0.2,0.4,0.3,0.7,0.3
				c0.4-0.3-0.2-0.5,0.2-0.9c0.4-0.3,0.9,0.2,1.3-0.3c-0.6-0.9,0.2-2,0.6-3c-0.6-0.9-0.1-2-0.8-2.9c1.4,0.4,2.8,0.5,3.9-1
				c-1.8-3.7-5.8,1.2-8.3-1.9c-1.7,1-4.2,1.1-4.7,3.6c-0.4,0.2-0.9-0.2-1.3,0.3C37,92.9,37.8,93.1,37.7,93.5z M99.4,116.1
				c0.6,0.8,1,1.6,1.7,2.3C101.6,117.5,100,116.4,99.4,116.1z M55.6,65.8c0-0.8-1.3-1.4-1.8-0.7C53.5,66,55,66.6,55.6,65.8z
				 M119.7,77.3c0.5,0.5,0.9,0,1.4,0.4c0.5,0.7-0.1,1.6-0.3,2.4c0.5,0.5,0.8-0.1,1.3,0.5c0.3,0.5,0.1,1,0.1,1.6
				c1.4,0.7,1.2,1.6,1.6,2.4c0.4,0,0.8-0.4,1.2-0.2c0.9,1.5,2.3-0.1,3.3,1.6c1.6-1.2,3.5-1.2,5.2,0.2c0.7-0.8-0.4-1.3-0.1-2
				c0.7-1.4,1.6-1.2,2.3-1.9c0.1-1.1,0.7-2.5,1.6-4c-0.7-0.5-0.4-1.1-0.4-1.8c-0.8-0.4-1.1-1-0.9-1.6c0.4-0.9,1-0.7,1.4-1.3
				c-0.9-0.2-1.7-0.1-2.6-0.7c-0.3-0.9-0.2-1.8-1.7-2.5c-0.4,0.4-0.8,0.4-1.3,0.3c-0.3-0.5,0.3-1.1-0.3-1.5c-0.7-0.1-1,1.7-1.9,1.1
				c-0.6-0.4,0.1-1-0.7-1.4c-0.6,0.5-0.8,0.8-1.1,1.5c-1.3-0.1-0.6-1.5-1.3-1.6c-0.4,0.6,0.3,1-0.2,1.6c-1.3,0.4-1.7,2.6-3.1,2.7
				c-0.8-0.1-2.2-2.3-3.6-2.3C122.7,72,123,76.1,119.7,77.3z M88.7,54.6c0.1-1.5-1.5-1.6-2.8-3C85.6,52.8,87.5,54,88.7,54.6z
				 M120.3,69.5c-0.8-0.9-1.7-1.8-2.7-2.6C117.6,67.9,119.4,69.2,120.3,69.5z M143.7,81c-0.3,1.4,1.6,1.6,2.3,0.9
				c0.9-0.9,0-1.9,0.6-2.8c-1.3-1.9-2.9,0.4-4.3,0.7c-0.1,0.3-0.1,0.5-0.1,0.7C142.7,81.1,143.2,80.9,143.7,81z M98.3,43.9
				c0.6-0.8-0.7-1.9-1.1-2.1C97,42.6,97.8,43.2,98.3,43.9z M106.3,43c-0.6,1.4-1,2.7-0.9,4C106,45.6,106.3,44.3,106.3,43z
				 M51.2,87.5L50.8,88c0.6,0.8,0.5,0.6,1.6,0.7c0.2,0.8,0.8,0.7,1,1.4c0.7-0.4,1.4-0.6,2.3,0.4c1.3-0.8,3.3-0.7,4.4-2.1
				c0.6-0.8,0.4-2.1,1.4-2.4c0.4,4.1,7.7,5.5,9.8,8.4c-1.2,0.8-2.4,1.3-3.5,2.1c-0.6-0.2-1.7-0.1-1.7,0.9c2.3,0.7,4.2-1.8,6.5-1
				c0.1,1.4,0.7,2.2,1,3.7c-1.4,2.1-1.2,3.8-1.5,5.6c-0.1,0.7-0.8,1.4,0,1.9c0.2-0.1,0.5-0.2,0.7-0.1c0.7-0.7,0.4-1.3,1.1-2
				c2,0.3,3.6,3,4.6,4.9c0.8-0.7,0.5-1.3,1.1-2c2,0.3,2.1,2,3.9,2.5c0.4,1-0.1,2.2,0.8,3.2c0.3,1.5-0.7,3.1,0,4.5
				c0.7-0.9,0.4-1.4,0.4-2.2c0.1-1,0.5-2.5,0.5-3.5c0-1.2-0.6-2.1,0-2.8c0.9-1,2.1-0.1,3.4,0c3.7-3.2,7.1,1.2,9.4,4.4
				c-1-2.2-3.1-4.3-3.7-6.6c1.6-0.1,3.2-0.2,4.8-1c0.8,0.7,0.4,1.5,1.6,2.1c0.7-0.7-0.3-1.1-0.2-1.7c2.5,1.1,1.9,3.6,4.6,4.9
				c-0.1,0.2,0,0.4,0,0.6c-0.3,0.6-0.7,0.3-1,0.8c0.2,0.9,0.2,1.9-0.5,2.6c0.6,1.1,1,2.4,0.1,3.7c0.6,0.6,0.9-0.5,1.5,0.3
				c-0.5,1.4,0.8,1.1,1.4,2.3c0.3-0.1,0.6-0.4,0.9-0.4c1.2,1.4,2.1,0.3,3.1,0.6c0.6,1,0.5,2.1,1.9,2.5c0.5-0.8-1.1-1.2-0.9-1.9
				c1.5-0.9,2.9-2.1,4.4-2.7c-0.3-0.8,0-1.8,1-2.5c-0.2-1.4-0.4-3-0.1-4.1c-0.4-0.5-0.7-0.1-1.1-0.4c-0.2-0.6-0.4-1.2,0-1.9
				c-1.9-0.3-3.3-1.4-4.9-2.2c-0.4,0-0.6,0.7-1,0.8c-0.4-0.3-0.9-0.4-1.3-0.5c-0.5-0.1-0.4,0.8-0.7,0.6c-1.7-1.6-4.8-3.5-5.3-5.9
				c0.7-1.8,1.5-3.5,3.4-4.4c0.4,0,0.8,0.8,1.5,1.1c0.3,0.4-0.3,0.8,0.2,1.2c2.7,1.3,5.2,1.4,7.6-0.2c0.4-0.8,0.9-1.7,1.5-2.5
				c0.4-1.8-0.6-3.5-0.7-5.2c-0.7,0.3-1.7-0.5-1.9-1.2c-2.1-0.3-4.2-0.6-6.1,0.8c-2-1.5-0.6-3.6-1.3-5.3c1.9-1.8,3.9-3.1,5.9-4.7
				c-1.6,0.1-3.3,1.5-5,3.2c-0.7-0.3-1.3-0.2-2-0.4c-0.1-0.6-0.6-1.1-0.1-1.8c0.4-0.5,0.9-0.1,1.3-0.5c-1.7-1-4.4-2.7-2.3-5.1
				c-0.6-0.8-1,0.2-1.5-0.3c-0.6-1.9,2.1-6,3.9-6.8c0,1.6-1.3,3.2,0.4,4.2c1.7,1,3.8-1.1,3.7-3.2c-1-1.5-1.6-3.3-3.6-2.3
				c-0.5-2.3,2.8-4.8,4.8-4.6c0.7,0.3,1.3,0.5,1.8,0.1c-0.1-0.1-0.1-0.2,0.1-0.4c-0.3-0.7-1.4-1.2-2.1-1.8c0.1-1,0-1.9,0.7-2.9
				c0.7-0.2,2.2,0.3,2.4-0.6c-0.9,0.4-2.5-0.5-2.9-1.5c0.3-0.5,0.5-1,0.8-1.6c-0.7-1.1-0.8-2.6-2.3-3.2c0-0.7,0.9-1.5,0.6-2.1
				c-0.7-0.7-1.2,0.5-2-0.2c0-0.6,1.4-1.5,0.5-2c-0.7-0.2-1.2,0.9-1.8,1c-1.4-0.5-1.8-1.4-2.8-2.1c0-0.3,0.3-0.7,0.1-1
				c-0.3,0.2,0,0.9-0.5,0.7c-0.6-0.4-0.2-1-1-1.4c-0.4,0.6-0.5,1.2-1.1,1.5c-2.7-1.8-4.9,0.6-7.3,1c-1.9-0.9-2.3-2.7-3.4-3.4
				c0.3,0.7,1,1.2,0.9,1.9c-0.6,0.1-1.4-0.2-1.5,0.6c0.8,0.7,1.5,0.3,2.3,0.4c0.2,0.6,1.2,1.1,1,1.8c-0.6,1.1-1.4,0.9-2.2,1.2
				c-0.4,0.7-0.2,1.4-0.8,2.2c-0.5,0.5-1.2-0.5-1.7,0.2c-0.4,0.6,0.7,1,0.8,1.5c-0.6,1.1-0.9,1.1-1.7,2c0.7,0.9,1.3,1.9,0.2,3.1
				c0.9,1,1.7,1.9,0.5,3.2c0,0.5,0.7,1,0.6,1.5c-0.2-0.1-0.9,0.3-0.7,0.6c0.9-0.6,2,1.2,2.2,1.9c0.6,0.3,1.1-0.4,1.8,0.2
				c-0.1,0.3,0,0.6-0.2,0.9c-1.4-0.1-3.1-1.7-4.5-1.9c-1.1,1.5-1.5,3.4-3.5,4.3c-0.1-0.1-0.2,0-0.4-0.1c0-0.4-0.3-0.8-0.9-1.1
				c0.1-2.6-2-4.2-2.7-6.5c-0.3,2.2,3.4,4.9,0.3,8c0.7,0.9,1.6-0.7,2,0.2c-1.1,0.9-2.5,0.2-3.7,0.7c-4-1.5-3.8-6.1-7.8-7.3
				c-3.8,3.1,3.6,7.4,1.7,10.3c-1.1,1.8-2.3,0.2-3.7-0.2c-0.5,1.3,1.7,1.7,1.7,2.8c-0.9,1.3-2,0.4-3,0.3c-0.8,1.5-1.9,0.8-3.1,1.3
				c-0.2,1,1.2,1.7,0.7,2.7c-1.6,0.5-4.4,2.1-5.2-0.4c-1.3,0.1-1.3-1-1.5-2c-0.9,0.2-1.3-0.5-1.9-1.2c-1.8,0.5-4.7-0.2-5.4,2.4
				c-0.5,0.5-1,0.2-1.5,0.8C51.1,84.3,50,86.1,51.2,87.5z M96.5,72c-0.5-0.2-1.3-0.9-0.7-1.6C96.6,70.5,96.9,71.4,96.5,72z
				 M82.6,71.9c-0.5-0.7,0.2-1.6,0.3-2.4C83.4,70.3,83.8,71.8,82.6,71.9z M106,78c1.5,0.1,3.7,0.2,4.7-0.3
				C109.1,77.7,107.5,77.4,106,78z M119.2,70.4c-0.5,0-1.8-1.8-2.6-1.3C117.4,69.8,119,71,119.2,70.4z"/>
		</g>
	</g>
</g>
</svg>
