<?xml version="1.0" encoding="utf-8"?>
<!-- Generator: Adobe Illustrator 18.1.0, SVG Export Plug-In . SVG Version: 6.00 Build 0)  -->
<svg version="1.1" id="Layer_1" xmlns="http://www.w3.org/2000/svg" xmlns:xlink="http://www.w3.org/1999/xlink" x="0px" y="0px"
	 viewBox="0 0 300 300" enable-background="new 0 0 300 300" xml:space="preserve">
<g>
	<path fill="#00A551" d="M65.7,186.9c0.3,1,0.6,2.3,1,3.3c-0.1-1.1-0.4-2.3-0.5-3.5C66,186.7,65.8,186.9,65.7,186.9z"/>
	<path fill="#00A551" d="M65.7,186.9c0.3,1,0.6,2.3,1,3.3c-0.1-1.1-0.4-2.3-0.5-3.5C66,186.7,65.8,186.9,65.7,186.9z"/>
	<path fill="#2A964D" d="M171.9,122.8c5.8-2.4,12-4.8,19-6.9c1.5-13.2,4.9-25.9,9.3-37.4c-12.5-5.4-17.8-15.6-18-25.9
		c-8.7,4.4-18.7,9.6-30.2,15C160.9,84,170.9,103.3,171.9,122.8z"/>
	<path fill="#00A551" d="M243.3,81.2c-0.4,0-0.7,0.1-1.1,0.1c-0.5,0.1-1.1,0.1-1.6,0.2c-0.4,0-0.7,0.1-1.2,0.1
		c-0.5,0.1-1.2,0.1-1.8,0.2c-0.4,0-0.9,0.1-1.2,0.1c-0.5,0.1-1.2,0.1-1.9,0.2c-0.4,0-0.9,0.1-1.2,0.1c-0.7,0.1-1.4,0.1-2.1,0
		c-0.4,0-0.9,0.1-1.2,0.1c-0.7,0.1-1.6,0-2.3,0.1c-0.4,0-0.7,0.1-1.3-0.1c-0.9,0.1-1.8,0-2.7-0.1c-0.4,0-0.7,0.1-1.1-0.1
		c-1.3-0.1-2.5-0.1-3.9-0.1c-1.6,0-3.2-0.2-4.9-0.4c-0.4,0-0.9-0.1-1.3-0.2c-1.3-0.2-2.4-0.3-3.5-0.6c-0.4-0.1-0.7-0.1-1.1-0.2
		c-1.5-0.2-2.7-0.6-4-1c-0.2,0-0.4-0.1-0.5-0.1c-1.1-0.4-2-0.7-3.2-1.1c-0.2,0-0.4-0.1-0.5-0.1c-4.4,11.7-8,24.2-9.3,37.4
		c1.6-0.5,3.3-1,4.9-1.6c0.2,0,0.4,0,0.3-0.2c1.7-0.5,3.3-1,5-1.6c0.2,0,0.2,0,0.4,0c1.6-0.5,3.3-1,4.9-1.6c0.4,0,0.7-0.2,1-0.3
		c1.4-0.3,2.6-0.8,4-1.1c0.4,0,0.7-0.2,1-0.3c1.6-0.5,3-0.8,4.5-1.2c0.4,0,0.7-0.2,1-0.3c1.2-0.3,2.3-0.6,3.5-0.9
		c0.4,0,0.9-0.3,1.2-0.3c1.4-0.3,2.8-0.6,4-0.9c0.4,0,0.5-0.1,0.9-0.1c1-0.3,2.1-0.4,3.1-0.7c0.4,0,0.7-0.1,1.1-0.1
		c1.2-0.1,2.5-0.4,3.5-0.5c0.2,0,0.4,0,0.5-0.1c1.1-0.1,1.9-0.2,2.8-0.3c0.4,0,0.5-0.1,0.9-0.1c0.5-0.1,0.9-0.1,1.3,0.1
		c2.1-7.7,3.5-15.4,4.3-23c-0.2,0-0.4,0-0.5,0.1C244.3,81.1,243.8,81.1,243.3,81.2z"/>
	<path fill="#00A551" d="M217.2,44.1c4.4-7.6,8.9-14.3,12.9-19.9c-4.5,3.5-11,7.9-20.6,13.7C211.7,39.5,214.3,41.7,217.2,44.1z"/>
	<path fill="#57B44C" d="M200.2,78.3c0.1-0.4,0.3-0.6,0.4-0.9c0.6-1.5,1.1-3,1.7-4.5c0.1-0.4,0.4-0.9,0.6-1.3
		c0.6-1.3,1.2-2.8,1.7-4.1c0.3-0.6,0.4-0.9,0.7-1.5c0.6-1.3,1.2-2.6,1.8-3.8c0.3-0.6,0.4-0.9,0.7-1.5c0.6-1.1,1.2-2.4,1.8-3.6
		c0.3-0.6,0.6-1.1,0.9-1.5c0.6-1.1,1.2-2.3,1.8-3.4c0.3-0.6,0.6-1.1,0.9-1.5c0.6-1.1,1.2-2.1,1.8-3c0.3-0.6,0.6-1.1,0.9-1.7
		c0.5-0.8,0.8-1.3,1.2-2.1c-2.9-2.4-5.5-4.6-7.8-6.4c-7.3,4.3-16.1,9.1-27.1,14.7C182.4,62.8,187.7,73,200.2,78.3z"/>
	<path fill="#00A551" d="M216,46.2c0.5-0.8,0.8-1.3,1.2-2.1C216.8,44.9,216.5,45.4,216,46.2z"/>
	<path fill="#00A551" d="M216,46.2c0.5-0.8,0.8-1.3,1.2-2.1C216.8,44.9,216.5,45.4,216,46.2z"/>
	<path fill="#00A551" d="M216,46.2c0.5-0.8,0.8-1.3,1.2-2.1C216.8,44.9,216.5,45.4,216,46.2z"/>
	<path fill="#57B44C" d="M192.5,147.6c-0.9,0.1-1.9,0.5-2.8,0.5c-7.1,0.4-14-2.2-20.4-7.1c-0.2,0.2-0.1,0.5-0.3,0.7
		c-0.3,0.7-0.6,1.5-0.9,2.2c-0.1,0.4-0.3,0.7-0.4,0.9c-0.4,1.1-1,2.1-1.6,3.2c-0.8,1.3-1.5,2.8-2.4,4.2c-0.2,0.2-0.3,0.6-0.5,0.8
		c-1.7,3-3.3,5.9-5.2,8.9c-0.2,0.2-0.1,0.4-0.3,0.6c-0.9,1.5-1.8,3-2.8,4.6c0,0,0,0,0,0.2c-0.9,1.5-1.8,3-2.6,4.4
		c-0.2,0.2-0.3,0.4-0.3,0.6c-0.9,1.5-1.8,3-2.8,4.6c-0.2,0.2-0.2,0.2-0.3,0.4c-0.9,1.3-1.7,2.7-2.6,4.2c-0.2,0.2-0.3,0.4-0.5,0.6
		c-0.9,1.5-1.9,2.9-3,4.4c-0.2,0.2-0.3,0.4-0.5,0.6c-0.9,1.3-1.7,2.5-2.7,3.8c-0.2,0.2-0.3,0.4-0.5,0.6c-0.9,1.3-2.1,2.7-3,4.1
		c-0.2,0.2-0.3,0.6-0.6,0.8l-0.2,0.2c2.5,3.2,4,6.2,4.1,8.7c0,1.8-2.3,7.7-6.1,16.2c33.6-6.9,58.9-31.4,76.9-57.4
		C202.6,163,195.8,158,192.5,147.6z"/>
	<path fill="#57B44C" d="M171.9,122.1c0,0.2,0,0.4,0,0.4c0.1,0.7,0,1.4,0,2.1c0,0.4,0.1,0.7-0.1,1.1c0.1,0.7,0,1.4-0.1,2.2
		c0,0.4-0.1,0.7-0.1,1.1c-0.1,0.7-0.2,1.5-0.1,2.2c0,0.4-0.1,0.7-0.1,1.1c-0.1,0.7-0.2,1.5-0.3,2.2c-0.1,0.4-0.1,0.7-0.2,1.1
		c-0.1,0.7-0.4,1.5-0.5,2c-0.1,0.4-0.1,0.7-0.2,1.1c-0.1,0.7-0.4,1.3-0.7,2c0,0.2-0.1,0.4-0.1,0.4c6.4,4.9,13.3,7.6,20.4,7.3
		c0.9-0.1,1.8-0.2,2.8-0.3c0-0.4-0.3-0.9-0.3-1.2c-0.2-0.5-0.3-1-0.5-1.7c-0.1-0.5-0.3-1.2-0.4-1.9c-0.1-0.5-0.3-1-0.4-1.8
		c-0.1-0.7-0.2-1.6-0.2-2.5c-0.1-0.5-0.1-1.1-0.2-1.6c-0.1-1.4-0.3-2.8-0.3-4.4c0-2,0-3.9,0-5.7c-0.1-0.5,0.1-0.9,0-1.4
		c0-1.6,0.2-3.4,0.2-5c0-0.2-0.1-0.5,0.1-0.7c0-1.4,0.2-3.1,0.4-4.5C184.2,118,177.7,120.1,171.9,122.1z"/>
	<path fill="#00A551" d="M192.5,148.3c0-0.4-0.3-0.9-0.3-1.2C192.3,147.4,192.3,148,192.5,148.3z"/>
	<path fill="#00A551" d="M192.5,148.3c0-0.4-0.3-0.9-0.3-1.2C192.3,147.4,192.3,148,192.5,148.3z"/>
	<path fill="#00A551" d="M192.5,148.3c0-0.4-0.3-0.9-0.3-1.2C192.3,147.4,192.3,148,192.5,148.3z"/>
	<path fill="#00A551" d="M73.4,214.5c-8.6,19.1-17.4,43.9-20.3,70.9l18.4-0.2c0,0-2.6-26.6,7.9-66.6c-1.7-2.3-3.2-4.9-4.5-7.8
		C74,212.9,73.5,214,73.4,214.5z"/>
	<path fill="#00A551" d="M71.2,208.1c0.5-0.8,0.9-1.5,1.4-2.3c-2.1-4.8-4-10.1-5.7-15.7C68,197.6,69.7,203.6,71.2,208.1z"/>
	<path fill="#00A551" d="M115.3,218.8c-2.2,1.6-4.1,3.3-6.3,4.6c2.7,0.1,5.2,0.2,7.9,0.1C116.2,221.9,115.7,220.3,115.3,218.8z"/>
	<path fill="#00A551" d="M135.8,196.7c-0.8,1.1-1.8,2.1-2.5,3.3c-0.2,0.2-0.3,0.4-0.5,0.6c-0.9,1.3-2.1,2.5-3,3.7
		c-0.2,0.2-0.5,0.6-0.6,0.8c-1,1.2-1.9,2.2-2.9,3.3c-0.2,0.2-0.2,0.2-0.3,0.4c-1,1.2-2.1,2.2-3.1,3.3c-0.3,0.2-0.5,0.6-0.8,0.8
		c-1,1-2.1,2-3.1,3c0,0,0,0-0.2,0c-1,1-2.1,1.8-3.3,2.8c-0.2,0.2-0.3,0.2-0.3,0.4c0.5,1.6,1,3.1,1.5,4.7c5.9-0.1,11.5-0.8,17.2-1.9
		c3.8-8.4,6.1-14.4,6.1-16.2C139.9,202.9,138.3,199.8,135.8,196.7z"/>
	<path fill="#7DC358" d="M135.8,196.7c-0.8,1.1-1.8,2.1-2.5,3.3c-0.2,0.2-0.3,0.4-0.5,0.6c-0.9,1.3-2.1,2.5-3,3.7
		c-0.2,0.2-0.5,0.6-0.6,0.8c-1,1.2-1.9,2.2-2.9,3.3c-0.2,0.2-0.2,0.2-0.3,0.4c-1,1.2-2.1,2.2-3.1,3.3c-0.3,0.2-0.5,0.6-0.8,0.8
		c-1,1-2.1,2-3.1,3c0,0,0,0-0.2,0c-1,1-2.1,1.8-3.3,2.8c-0.2,0.2-0.3,0.2-0.3,0.4c0.5,1.6,1,3.1,1.5,4.7c5.9-0.1,11.5-0.8,17.2-1.9
		c3.8-8.4,6.1-14.4,6.1-16.2C139.9,202.9,138.3,199.8,135.8,196.7z"/>
	<path fill="#2A964D" d="M114.1,176c0,0,1.2,1,3.1,2.4c7.6-22.4,24.5-41.2,39.5-50.2c-11.3-14.6-20.1-34.7-24.3-52.3
		c-65,29.5-70.4,79.3-65.9,110.6C84.6,180.9,103.5,175.4,114.1,176z"/>
	<path fill="#00A551" d="M165.8,124c1.9-0.5,4-1.3,6.2-2.1c-1-18.9-11-38.4-19.8-55.1c-5.6,2.5-11.8,5.3-18.1,8.2
		c-0.7,0.2-1.2,0.7-1.7,0.9c4.3,17.6,13.1,37.7,24.3,52.3C159.8,126.4,162.9,125,165.8,124z"/>
	<path fill="#00A551" d="M165.8,124c1.9-0.5,4-1.3,6.2-2.1c-1-18.9-11-38.4-19.8-55.1c-5.6,2.5-11.8,5.3-18.1,8.2
		c-0.7,0.2-1.2,0.7-1.7,0.9c4.3,17.6,13.1,37.7,24.3,52.3C159.8,126.4,162.9,125,165.8,124z"/>
	<path fill="#00A551" d="M135.8,196.7l0.2-0.2L135.8,196.7z"/>
	<path fill="#00A551" d="M135.8,196.7l0.2-0.2L135.8,196.7z"/>
	<path fill="#7DC358" d="M115.1,218.6c-0.5-1.6-0.8-3-1.2-4.5c-2.5-12.1-1-24.2,2.9-35.5c-1.8-1.4-3.1-2.4-3.1-2.4
		c-10.6-0.7-29.6,4.7-47.9,10.7c0.1,1.2,0.4,2.3,0.5,3.5c1.6,5.6,3.6,10.9,5.7,15.7c11.2-18.1,25.5-26,25.5-26
		c-13.9,13.2-20.4,25.3-23,31.1c1.5,2.9,3,5.4,4.5,7.8c0.1-0.4,0.1-0.7,0.3-0.9c10.3,3.3,20,5.2,29.4,5.7c2.2-1.3,4.2-2.9,6.3-4.6
		C115.3,218.8,115.3,218.6,115.1,218.6z"/>
	<path fill="#00A551" d="M133.3,200c0.8-1.1,1.8-2.1,2.5-3.3C135.1,197.8,134.1,199,133.3,200z"/>
	<path fill="#00A551" d="M133.3,200c0.8-1.1,1.8-2.1,2.5-3.3C135.1,197.8,134.1,199,133.3,200z"/>
	<path fill="#00A551" d="M133.3,200c0.8-1.1,1.8-2.1,2.5-3.3C135.1,197.8,134.1,199,133.3,200z"/>
	<path fill="#00A551" d="M169,142.1c0.2-0.2,0.1-0.5,0.3-0.7C169.2,141.5,169.2,141.7,169,142.1z"/>
	<path fill="#00A551" d="M169,142.1c0.2-0.2,0.1-0.5,0.3-0.7C169.2,141.5,169.2,141.7,169,142.1z"/>
	<path fill="#00A551" d="M171.9,122.5c0-0.2,0-0.4,0-0.4C171.9,122.3,171.9,122.3,171.9,122.5z"/>
	<path fill="#00A551" d="M171.9,122.5c0-0.2,0-0.4,0-0.4C171.9,122.3,171.9,122.3,171.9,122.5z"/>
	<path fill="#00A551" d="M171.9,122.5c0-0.2,0-0.4,0-0.4C171.9,122.3,171.9,122.3,171.9,122.5z"/>
	<path fill="#00A551" d="M169.3,141.3c0-0.2,0.1-0.4,0.1-0.4S169.3,141.1,169.3,141.3z"/>
	<path fill="#00A551" d="M169.3,141.3c0-0.2,0.1-0.4,0.1-0.4S169.3,141.1,169.3,141.3z"/>
	<path fill="#00A551" d="M169.3,141.3c0-0.2,0.1-0.4,0.1-0.4S169.3,141.1,169.3,141.3z"/>
	<path fill="#00A551" d="M115.3,218.8c0.2-0.2,0.3-0.2,0.3-0.4C115.5,218.6,115.5,218.7,115.3,218.8z"/>
	<path fill="#00A551" d="M115.3,218.8c0.2-0.2,0.3-0.2,0.3-0.4C115.5,218.6,115.5,218.7,115.3,218.8z"/>
	<path fill="#00A551" d="M115.3,218.8c0.2-0.2,0.3-0.2,0.3-0.4C115.5,218.6,115.5,218.7,115.3,218.8z"/>
	<path fill="#00A551" d="M171.9,122.1c-1.7,0.7-4.2,1.3-6.2,2.1C167.7,123.4,170.1,122.6,171.9,122.1z"/>
	<path fill="#00A551" d="M171.9,122.1c-1.7,0.7-4.2,1.3-6.2,2.1C167.7,123.4,170.1,122.6,171.9,122.1z"/>
	<path fill="#00A551" d="M171.9,122.1c-1.7,0.7-4.2,1.3-6.2,2.1C167.7,123.4,170.1,122.6,171.9,122.1z"/>
	<path fill="#00A551" d="M156.6,128.3c-15,8.8-31.9,27.9-39.5,50.1c-3.9,11.3-5.4,23.4-2.9,35.5c0.3,1.6,0.7,3.2,1.2,4.5
		c0,0.2,0,0.2,0,0.4c0.2-0.2,0.3-0.2,0.3-0.4c1.2-0.8,2.1-1.8,3.3-2.8c0,0,0,0,0.2,0c1-1,2.1-2,3.1-3c0.3-0.2,0.5-0.6,0.8-0.8
		c1-1,2.1-2.2,3.1-3.3c0.2-0.2,0.2-0.2,0.3-0.4c1-1,1.9-2.2,2.9-3.3c0.2-0.2,0.5-0.6,0.6-0.8c1-1.2,2.1-2.4,3-3.7
		c0.2-0.2,0.3-0.4,0.5-0.6c0.8-1.2,1.8-2.1,2.5-3.3l0.2-0.2c0.2-0.2,0.3-0.6,0.6-0.8c0.9-1.3,2.1-2.7,3-4.1c0.2-0.2,0.3-0.4,0.5-0.6
		c0.9-1.3,1.7-2.5,2.7-3.8c0.2-0.2,0.3-0.4,0.5-0.6c0.9-1.3,1.9-2.9,3-4.4c0.2-0.2,0.3-0.4,0.5-0.6c0.9-1.3,1.7-2.7,2.6-4.2
		c0.2-0.2,0.2-0.2,0.3-0.4c0.9-1.5,1.8-3,2.8-4.6c0.2-0.2,0.3-0.4,0.3-0.6c0.9-1.5,1.8-3,2.6-4.4c0,0,0,0,0-0.2
		c0.9-1.5,1.8-3,2.8-4.6c0.2-0.2,0.1-0.4,0.3-0.6c1.8-3,3.5-6.1,5.2-8.9c0.2-0.2,0.3-0.4,0.5-0.8c0.7-1.5,1.7-2.8,2.4-4.2
		c0.6-1,1-2.1,1.7-3c0.1-0.4,0.3-0.7,0.4-0.9c0.3-0.7,0.6-1.5,0.9-2.2c0.2-0.2,0.1-0.5,0.3-0.7C164.9,137.8,160.5,133.4,156.6,128.3
		z"/>
	<path fill="#00A551" d="M169.4,140.8c0.3-0.7,0.4-1.3,0.7-2c0.1-0.4,0.3-0.7,0.2-1.1c0.1-0.7,0.4-1.3,0.5-2
		c0.1-0.4,0.1-0.7,0.2-1.1c0.1-0.7,0.2-1.4,0.3-2.2c0-0.4,0.1-0.7,0.1-1.1c0.1-0.7,0.2-1.5,0.1-2.2c0-0.4,0.1-0.7,0.1-1.1
		c0.1-0.7,0-1.4,0.1-2.2c0-0.4-0.1-0.7,0.1-1.1c-0.1-0.7,0-1.4,0-2.1c0-0.2,0-0.4,0-0.4c-2.1,0.7-4.2,1.3-6.2,2.1
		c-3,0.8-6,2.4-9.2,4.3c3.9,5.2,8.3,9.5,12.7,13C169.3,141.1,169.5,140.9,169.4,140.8z"/>
	<path fill="#00A551" d="M169.4,140.8c0.3-0.7,0.4-1.3,0.7-2c0.1-0.4,0.3-0.7,0.2-1.1c0.1-0.7,0.4-1.3,0.5-2
		c0.1-0.4,0.1-0.7,0.2-1.1c0.1-0.7,0.2-1.4,0.3-2.2c0-0.4,0.1-0.7,0.1-1.1c0.1-0.7,0.2-1.5,0.1-2.2c0-0.4,0.1-0.7,0.1-1.1
		c0.1-0.7,0-1.4,0.1-2.2c0-0.4-0.1-0.7,0.1-1.1c-0.1-0.7,0-1.4,0-2.1c0-0.2,0-0.4,0-0.4c-2.1,0.7-4.2,1.3-6.2,2.1
		c-3,0.8-6,2.4-9.2,4.3c3.9,5.2,8.3,9.5,12.7,13C169.3,141.1,169.5,140.9,169.4,140.8z"/>
	<path fill="#00A551" d="M169.4,140.8c0.3-0.7,0.4-1.3,0.7-2c0.1-0.4,0.3-0.7,0.2-1.1c0.1-0.7,0.4-1.3,0.5-2
		c0.1-0.4,0.1-0.7,0.2-1.1c0.1-0.7,0.2-1.4,0.3-2.2c0-0.4,0.1-0.7,0.1-1.1c0.1-0.7,0.2-1.5,0.1-2.2c0-0.4,0.1-0.7,0.1-1.1
		c0.1-0.7,0-1.4,0.1-2.2c0-0.4-0.1-0.7,0.1-1.1c-0.1-0.7,0-1.4,0-2.1c0-0.2,0-0.4,0-0.4c-2.1,0.7-4.2,1.3-6.2,2.1
		c-3,0.8-6,2.4-9.2,4.3c3.9,5.2,8.3,9.5,12.7,13C169.3,141.1,169.5,140.9,169.4,140.8z"/>
	<path fill="#7DC358" d="M169.4,140.8c0.3-0.7,0.4-1.3,0.7-2c0.1-0.4,0.3-0.7,0.2-1.1c0.1-0.7,0.4-1.3,0.5-2
		c0.1-0.4,0.1-0.7,0.2-1.1c0.1-0.7,0.2-1.4,0.3-2.2c0-0.4,0.1-0.7,0.1-1.1c0.1-0.7,0.2-1.5,0.1-2.2c0-0.4,0.1-0.7,0.1-1.1
		c0.1-0.7,0-1.4,0.1-2.2c0-0.4-0.1-0.7,0.1-1.1c-0.1-0.7,0-1.4,0-2.1c0-0.2,0-0.4,0-0.4c-2.1,0.7-4.2,1.3-6.2,2.1
		c-3,0.8-6,2.4-9.2,4.3c3.9,5.2,8.3,9.5,12.7,13C169.3,141.1,169.5,140.9,169.4,140.8z"/>
	<path fill="#00A551" d="M115.1,218.6c0,0.2,0,0.2,0,0.4C115.3,218.8,115.3,218.6,115.1,218.6z"/>
	<path fill="#00A551" d="M115.1,218.6c0,0.2,0,0.2,0,0.4C115.3,218.8,115.3,218.6,115.1,218.6z"/>
	<path fill="#00A551" d="M115.1,218.6c0,0.2,0,0.2,0,0.4C115.3,218.8,115.3,218.6,115.1,218.6z"/>
	<path fill="#00A551" d="M195.8,114.4c-1.6,0.5-3.3,1-4.9,1.6C192.5,115.4,194.2,114.9,195.8,114.4z"/>
	<path fill="#00A551" d="M195.8,114.4c-1.6,0.5-3.3,1-4.9,1.6C192.5,115.4,194.2,114.9,195.8,114.4z"/>
	<path fill="#00A551" d="M195.8,114.4c-1.6,0.5-3.3,1-4.9,1.6C192.5,115.4,194.2,114.9,195.8,114.4z"/>
	<path fill="#00A551" d="M240.9,104c-0.4,0-0.9-0.1-1.3-0.1C240.2,103.9,240.5,104,240.9,104z"/>
	<path fill="#00A551" d="M240.9,104c-0.4,0-0.9-0.1-1.3-0.1C240.2,103.9,240.5,104,240.9,104z"/>
	<path fill="#00A551" d="M240.9,104c-0.4,0-0.9-0.1-1.3-0.1C240.2,103.9,240.5,104,240.9,104z"/>
	<path fill="#00A551" d="M222.4,143.2c-0.7,0.2-1.4,0.3-2.1,0.6c-0.5,0.1-1,0.3-1.6,0.3c-0.7,0.2-1.4,0.3-2.1,0.6
		c-0.5,0.1-1,0.3-1.4,0.3c-0.7,0.1-1.4,0.3-2.1,0.4c-0.5,0.1-0.9,0.3-1.4,0.3c-0.7,0.1-1.4,0.3-2.1,0.4c-0.5,0.1-0.9,0.1-1.4,0.3
		c-0.7,0.1-1.4,0.3-2.1,0.4c-0.5,0.1-0.9,0.1-1.4,0.1c-0.7,0.1-1.4,0.1-2.1,0.4c-0.4,0-0.9,0.1-1.2,0.1c-0.7,0.1-1.4,0.1-2.1,0.2
		c-0.4,0-0.9,0.1-1.2,0.1c-0.7,0.1-1.4,0.1-2.1,0.2c-0.4,0-0.9,0.1-1.2,0.1c-0.7,0.1-1.4,0.1-1.9,0.2c0,0,0,0-0.2,0
		c3.4,10.4,10.1,15.1,18.4,16.2c5-7.3,9.4-14.7,13.4-21.9c-0.2,0-0.4,0-0.5,0.1C223.5,142.9,222.9,143,222.4,143.2z"/>
	<path fill="#00A551" d="M190.5,120.4c0-1.4,0.2-3.1,0.4-4.5C190.7,117.4,190.5,118.8,190.5,120.4z"/>
	<path fill="#00A551" d="M190.5,120.4c0-1.4,0.2-3.1,0.4-4.5C190.7,117.4,190.5,118.8,190.5,120.4z"/>
	<path fill="#00A551" d="M190.5,120.4c0-1.4,0.2-3.1,0.4-4.5C190.7,117.4,190.5,118.8,190.5,120.4z"/>
	<path fill="#00A551" d="M224.3,142.6c-0.2,0-0.4,0-0.5,0.1C224,142.7,224.2,142.7,224.3,142.6z"/>
	<path fill="#00A551" d="M224.3,142.6c-0.2,0-0.4,0-0.5,0.1C224,142.7,224.2,142.7,224.3,142.6z"/>
	<path fill="#00A551" d="M224.3,142.6c-0.2,0-0.4,0-0.5,0.1C224,142.7,224.2,142.7,224.3,142.6z"/>
	<path fill="#7DC358" d="M238.7,104c-0.9,0.1-2,0.2-2.8,0.3c-0.2,0-0.4,0-0.5,0.1c-1.2,0.1-2.3,0.2-3.5,0.5c-0.4,0-0.7,0.1-1.1,0.1
		c-1.1,0.1-2.1,0.4-3.2,0.7c-0.4,0-0.5,0.1-0.9,0.1c-1.4,0.3-2.6,0.6-4,0.9c-0.4,0-0.9,0.3-1.2,0.3c-1,0.3-2.3,0.6-3.5,0.9
		c-0.4,0-0.7,0.2-1,0.3c-1.4,0.3-3,0.8-4.5,1.2c-0.4,0-0.7,0.2-1,0.3c-1.2,0.3-2.6,0.8-4,1.1c-0.4,0-0.7,0.2-1,0.3
		c-1.6,0.5-3.3,1-4.9,1.6c-0.2,0-0.2,0-0.4,0c-1.7,0.5-3.3,1-5,1.6c-0.2,0-0.4,0-0.3,0.2c-1.6,0.5-3.3,1-4.9,1.6
		c-0.2,1.5-0.4,3.1-0.4,4.5c0,0.2,0.1,0.5-0.1,0.7c-0.2,1.6-0.2,3.4-0.2,5c0.1,0.5-0.1,0.9,0,1.4c0,2,0,3.8,0,5.7
		c0,1.6,0.1,3,0.3,4.4c0.1,0.5,0.1,1.1,0.2,1.6c0.1,0.9,0.2,1.6,0.2,2.5c0.1,0.5,0.3,1.2,0.4,1.8c0.1,0.7,0.3,1.2,0.4,1.9
		c0.1,0.5,0.3,1.2,0.5,1.7c0,0.4,0.3,0.9,0.3,1.2c0,0,0,0,0.2,0c0.7-0.1,1.2-0.1,1.9-0.2c0.4,0,0.7-0.1,1.2-0.1
		c0.7-0.1,1.4-0.1,2.1-0.2c0.4,0,0.9-0.1,1.2-0.1c0.7-0.1,1.4-0.1,2.1-0.2c0.4,0,0.9-0.1,1.2-0.1c0.7-0.1,1.4-0.1,2.1-0.4
		c0.5-0.1,0.9-0.1,1.4-0.1c0.7-0.1,1.4-0.3,2.1-0.4c0.5-0.1,0.9-0.1,1.4-0.3c0.7-0.1,1.4-0.3,2.1-0.4c0.5-0.1,0.9-0.3,1.4-0.3
		c0.7-0.1,1.4-0.3,2.1-0.4c0.5-0.1,1-0.3,1.4-0.3c0.7-0.1,1.4-0.3,2.1-0.6c0.5-0.1,1-0.3,1.6-0.3c0.7-0.2,1.4-0.3,2.1-0.6
		c0.5-0.1,1-0.3,1.6-0.3c0.2,0,0.4,0,0.5-0.1c5.3-9.6,9.6-19,12.8-27.2c1.6-3.7,2.8-7.6,3.9-11.5c-0.4,0-0.9-0.1-1.3-0.1
		C239.3,104,239.1,104,238.7,104z"/>
	<path fill="#00A551" d="M200.6,78.7c-0.2,0-0.4-0.1-0.4-0.1C200.4,78.5,200.6,78.5,200.6,78.7z"/>
	<path fill="#00A551" d="M200.6,78.7c-0.2,0-0.4-0.1-0.4-0.1C200.4,78.5,200.6,78.5,200.6,78.7z"/>
	<path fill="#00A551" d="M200.6,78.7c-0.2,0-0.4-0.1-0.4-0.1C200.4,78.5,200.6,78.5,200.6,78.7z"/>
	<path fill="#2A964D" d="M239.6,14.1c0,0-0.4,2.9-9.6,9.9c-3.9,5.8-8.4,12.5-12.9,19.9l0.2,0.2l0.2,0.2c0.8,0.6,1.6,1.3,2.3,1.9
		c0.2,0.2,0.4,0.3,0.6,0.5c0.8,0.6,1.7,1.4,2.5,2.3c0.2,0.2,0.2,0.2,0.4,0.3c0.8,0.6,1.6,1.3,2.4,2.1c0.2,0.3,0.6,0.5,0.8,0.8
		c0.8,0.6,1.6,1.3,2.3,1.9c0.2,0.2,0.4,0.3,0.4,0.5c1,0.8,1.8,1.6,2.7,2.4c0.2,0.3,0.6,0.5,0.8,0.8c0.8,0.6,1.6,1.3,2.2,2.1
		c0.2,0.2,0.4,0.3,0.6,0.7c1,0.8,1.8,1.6,2.8,2.6c0.2,0.2,0.6,0.5,0.8,0.6c0.8,0.6,1.6,1.4,2.2,2.1c0.2,0.2,0.4,0.5,0.8,0.6
		c1,0.8,1.8,1.8,2.8,2.6c0.2,0.2,0.4,0.3,0.6,0.7c0.2,0.2,0.4,0.3,0.4,0.5C247.1,39.1,239.6,14.1,239.6,14.1z"/>
	<path fill="#00A551" d="M200.2,78.3c0.1-0.4,0.3-0.6,0.4-0.9C200.5,77.8,200.4,78.1,200.2,78.3z"/>
	<path fill="#00A551" d="M200.2,78.3c0.1-0.4,0.3-0.6,0.4-0.9C200.5,77.8,200.4,78.1,200.2,78.3z"/>
	<path fill="#00A551" d="M200.2,78.3c0.1-0.4,0.3-0.6,0.4-0.9C200.5,77.8,200.4,78.1,200.2,78.3z"/>
	<path fill="#00A551" d="M217.4,44.3l-0.2-0.2L217.4,44.3z"/>
	<path fill="#00A551" d="M217.4,44.3l-0.2-0.2L217.4,44.3z"/>
	<path fill="#00A551" d="M217.4,44.3l-0.2-0.2L217.4,44.3z"/>
	<path fill="#7DC358" d="M244.9,68.9c-1-0.8-1.8-1.8-2.8-2.6c-0.2-0.2-0.4-0.5-0.8-0.6c-0.8-0.6-1.6-1.5-2.2-2.1
		c-0.2-0.2-0.6-0.5-0.8-0.6c-1-0.8-1.8-1.8-2.8-2.6c-0.2-0.2-0.4-0.3-0.6-0.7c-0.8-0.6-1.6-1.3-2.2-2.1c-0.2-0.3-0.6-0.5-0.8-0.8
		c-1-0.8-1.8-1.6-2.7-2.4c-0.2-0.2-0.4-0.3-0.4-0.5c-0.8-0.6-1.6-1.3-2.3-1.9c-0.2-0.3-0.6-0.5-0.8-0.8c-0.8-0.6-1.6-1.3-2.4-2.1
		c-0.2-0.2-0.2-0.2-0.4-0.3c-0.8-0.8-1.8-1.4-2.5-2.3c-0.2-0.2-0.4-0.3-0.6-0.5c-0.8-0.6-1.6-1.3-2.3-1.9l-0.2-0.2l-0.2-0.2
		c-0.5,0.8-0.8,1.3-1.2,2.1c-0.3,0.6-0.6,1.1-0.9,1.7c-0.6,1-1.2,2.1-1.8,3c-0.3,0.6-0.6,1.1-0.9,1.5c-0.6,1.1-1.2,2.3-1.8,3.4
		c-0.3,0.6-0.6,1-0.9,1.5c-0.6,1.1-1.2,2.3-1.8,3.6c-0.3,0.6-0.4,0.9-0.7,1.5c-0.6,1.3-1.2,2.4-1.8,3.8c-0.3,0.6-0.4,0.9-0.7,1.5
		c-0.6,1.3-1.2,2.6-1.7,4.1c-0.1,0.4-0.4,0.9-0.6,1.3c-0.6,1.5-1.1,3-1.7,4.5c-0.1,0.4-0.3,0.6-0.4,0.9c0.2,0,0.4,0.1,0.4,0.1
		c0.9,0.4,2.1,0.9,3.1,1.1c0.2,0,0.4,0.1,0.5,0.1c1.3,0.4,2.6,0.8,4,1c0.4,0.1,0.7,0.1,1.1,0.2c1.1,0.2,2.2,0.3,3.5,0.5
		c0.4,0.1,0.9,0.1,1.3,0.2c1.6,0.2,3.1,0.2,4.9,0.4c1.3,0.1,2.7,0.1,3.9,0.1c0.4,0,0.7-0.1,1.1,0.1c0.9,0.1,1.8,0,2.7,0.1
		c0.4,0,0.7-0.1,1.3,0.1c0.7-0.1,1.6,0,2.3-0.1c0.4,0,0.9-0.1,1.2-0.1c0.7-0.1,1.4,0,2.1,0c0.4,0,0.9-0.1,1.2-0.1
		c0.7-0.1,1.2-0.1,1.9-0.2c0.4,0,0.9-0.1,1.2-0.1c0.5-0.1,1.2-0.1,1.8-0.2c0.4,0,0.7-0.1,1.2-0.1c0.5-0.1,1.1-0.1,1.6-0.2
		c0.4,0,0.7-0.1,1.1-0.1c0.5-0.1,1.1-0.1,1.6-0.2c0.2,0,0.4,0,0.5-0.1c0.3-3.8,0.7-7.4,0.7-11c-0.2-0.2-0.4-0.3-0.4-0.5
		C245.3,69.4,245.1,69.2,244.9,68.9z"/>
</g>
</svg>
